<svg width="155" height="155" fill="none" xmlns="http://www.w3.org/2000/svg"><path d="M77.5 155c42.802 0 77.5-34.698 77.5-77.5S120.302 0 77.5 0 0 34.698 0 77.5 34.698 155 77.5 155z" fill="#263A7A"/><path d="M123.547 52.155l-77.42 57.58 44.084 44.221c34.862-5.752 61.879-34.766 64.568-70.57l-31.232-31.231z" fill="#121149"/><path d="M42.596 78.673c8.623 0 15.613-6.99 15.613-15.613s-6.99-15.614-15.613-15.614-15.613 6.99-15.613 15.614c0 8.623 6.99 15.613 15.613 15.613z" fill="#A56704"/><path d="M112.399 78.673c8.623 0 15.613-6.99 15.613-15.613s-6.99-15.614-15.613-15.614-15.614 6.99-15.614 15.614c0 8.623 6.991 15.613 15.614 15.613z" fill="#845004"/><path d="M77.5 120.947c24.211 0 43.838-16.648 43.838-37.184 0-20.537-19.627-37.185-43.838-37.185-24.211 0-43.838 16.648-43.838 37.185 0 20.536 19.627 37.184 43.838 37.184z" fill="#D48B07"/><path d="M77.5 46.579c-.058 0-.115.003-.174.003v74.362l.174.003c24.211 0 43.838-16.648 43.838-37.184 0-20.536-19.627-37.184-43.838-37.184z" fill="#B5740B"/><path d="M60.236 91.33a2.479 2.479 0 100-4.958 2.479 2.479 0 000 4.958zM94.764 91.33a2.48 2.48 0 100-4.958 2.48 2.48 0 000 4.958z" fill="#1E262B"/><path d="M74.554 105.341l-3.02-3.884c-1.492-1.92.18-4.442 2.947-4.442h6.037c2.766 0 4.439 2.522 2.946 4.442l-3.02 3.884c-1.375 1.771-4.513 1.771-5.89 0z" fill="#7C4D03"/><path d="M80.519 97.016h-3.193v9.645c1.185.048 2.396-.389 3.12-1.32l3.019-3.884c1.492-1.92-.18-4.441-2.946-4.441z" fill="#663C04"/></svg>