<svg width="156" height="155" fill="none" xmlns="http://www.w3.org/2000/svg"><path d="M78 155c43.078 0 78-34.698 78-77.5S121.078 0 78 0 0 34.698 0 77.5 34.922 155 78 155z" fill="#FFC61B"/><path d="M117.723 43.39L49.97 110.916l42.94 42.664c34.718-6.678 61.224-36.226 62.994-72.236L117.723 43.39z" fill="#D48B07"/><path d="M47.504 65.65c7.236 0 13.102-5.828 13.102-13.018S54.74 39.614 47.504 39.614c-7.236 0-13.103 5.828-13.103 13.018s5.866 13.019 13.103 13.019z" fill="#C86031"/><path d="M108.496 65.65c7.237 0 13.103-5.828 13.103-13.018s-5.866-13.018-13.103-13.018c-7.236 0-13.102 5.828-13.102 13.018s5.866 13.019 13.102 13.019z" fill="#9E3E18"/><path d="M116.957 83.16c0 23.15-17.441 39.112-38.957 39.112-21.516 0-38.957-15.962-38.957-39.112 0-23.15 17.441-44.722 38.957-44.722 21.516 0 38.957 21.572 38.957 44.722z" fill="#915F4E"/><path d="M78 38.438l-.175.003v83.826c.059 0 .116.005.175.005 21.516 0 38.957-15.962 38.957-39.112 0-23.15-17.441-44.722-38.957-44.722z" fill="#774638"/><path d="M66.77 73.096a2.487 2.487 0 002.496-2.48c0-1.369-1.118-2.479-2.496-2.479a2.487 2.487 0 00-2.495 2.48c0 1.369 1.117 2.479 2.495 2.479zM89.23 73.096a2.487 2.487 0 002.495-2.48c0-1.369-1.117-2.479-2.495-2.479a2.488 2.488 0 00-2.496 2.48c0 1.369 1.118 2.479 2.496 2.479z" fill="#252828"/><path d="M75.45 112.35h-2.041c-.922 0-1.67-.743-1.67-1.659v-7.741c0-.916.748-1.659 1.67-1.659h2.04c.922 0 1.67.743 1.67 1.659v7.741c0 .916-.748 1.659-1.67 1.659zM82.591 112.35h-2.04c-.922 0-1.67-.743-1.67-1.659v-7.741c0-.916.748-1.659 1.67-1.659h2.04c.922 0 1.67.743 1.67 1.659v7.741c0 .916-.747 1.659-1.67 1.659z" fill="#fff"/><path d="M78 106.823c7.457 0 13.502-4.168 13.502-9.309 0-5.14-6.045-9.308-13.502-9.308-7.457 0-13.502 4.167-13.502 9.308s6.045 9.309 13.502 9.309z" fill="#C86031"/><path d="M78 88.204c-.059 0-.117.003-.175.003v18.61c.058.001.116.003.175.003 7.457 0 13.502-4.167 13.502-9.307 0-5.14-6.045-9.309-13.502-9.309z" fill="#9E3E18"/><path d="M74.859 98.731l-3.22-4.114c-1.591-2.035.192-4.707 3.142-4.707h6.438c2.95 0 4.733 2.672 3.141 4.707l-3.219 4.114c-1.468 1.876-4.814 1.876-6.282 0z" fill="#252828"/><path d="M81.22 89.91h-3.395v10.22c1.26.048 2.546-.415 3.316-1.399l3.22-4.114c1.591-2.035-.192-4.707-3.142-4.707z" fill="#000"/></svg>