<svg width="156" height="155" fill="none" xmlns="http://www.w3.org/2000/svg"><path d="M78 155c43.078 0 78-34.698 78-77.5S121.078 0 78 0 0 34.698 0 77.5 34.922 155 78 155z" fill="#FFEDB5"/><path d="M56.274 24.207l38.12 37.877H53.318s-6.513-28.543 2.957-37.877zM124.559 49.508l-73.328 62.687 41.657 41.389c34.95-6.713 61.58-36.604 63.042-72.935l-31.371-31.141z" fill="#FEE187"/><path d="M97.96 66.59c-3.66-5.738-1.945-13.337 3.829-16.973 3.993-2.514 14.286-2.034 20.258-1.498 2.318.207 3.808 2.543 3.007 4.715-2.062 5.594-6.02 15.047-10.013 17.561-5.774 3.637-13.423 1.933-17.082-3.805z" fill="#724101"/><path d="M58.04 66.59c3.66-5.739 1.945-13.337-3.83-16.974-3.992-2.514-14.285-2.033-20.258-1.498-2.317.208-3.807 2.544-3.007 4.715 2.062 5.594 6.02 15.048 10.013 17.562 5.775 3.637 13.424 1.933 17.083-3.806z" fill="#895100"/><path d="M56.274 24.207S48.646 41.43 63.3 49.52L46.71 60.479s-12.118-22.442 9.565-36.272z" fill="#D48B07"/><path d="M99.726 24.207s7.628 17.222-7.027 25.312l16.591 10.96c.001 0 12.119-22.442-9.564-36.272z" fill="#AA6B07"/><path d="M42.164 83.56c.005 28.853 16.05 38.502 35.836 38.492 19.792-.011 35.836-9.652 35.836-38.493 0-28.84-16.044-41.216-35.836-41.216-19.792 0-35.842 12.376-35.836 41.216z" fill="#684000"/><path d="M78 42.343c-.147 0-.291.007-.438.008v79.694c.147.001.291.007.438.007 19.792-.01 35.836-9.652 35.836-38.492 0-28.84-16.044-41.218-35.836-41.218z" fill="#4F2F00"/><path d="M78 118.373c14.744 0 26.696-7.661 26.696-17.112 0-9.45-11.952-17.111-26.696-17.111-14.743 0-26.695 7.66-26.695 17.111S63.257 118.373 78 118.373z" fill="#D48B07"/><path d="M78 84.15c-.147 0-.292.006-.438.007v34.209c.146.002.291.007.438.007 14.743 0 26.695-7.661 26.695-17.111 0-9.45-11.952-17.112-26.695-17.112z" fill="#AA6B07"/><path d="M63.02 105.778c2.51 0 4.546-2.022 4.546-4.517 0-2.494-2.036-4.516-4.546-4.516-2.511 0-4.546 2.022-4.546 4.516 0 2.495 2.035 4.517 4.546 4.517zM92.98 105.778c2.51 0 4.546-2.022 4.546-4.517 0-2.494-2.035-4.516-4.546-4.516-2.51 0-4.546 2.022-4.546 4.516 0 2.495 2.036 4.517 4.546 4.517z" fill="#543200"/><path d="M63.377 72.31a2.5 2.5 0 002.508-2.492 2.5 2.5 0 00-2.508-2.492 2.5 2.5 0 00-2.508 2.492 2.5 2.5 0 002.508 2.492z" fill="#000002"/><path d="M63.377 73.09c-1.817 0-3.296-1.469-3.296-3.274 0-1.806 1.479-3.275 3.296-3.275 1.818 0 3.296 1.469 3.296 3.275 0 1.805-1.478 3.274-3.296 3.274zm0-4.984c-.948 0-1.72.767-1.72 1.71 0 .941.772 1.708 1.72 1.708.949 0 1.72-.767 1.72-1.709 0-.942-.77-1.709-1.72-1.709z" fill="#FFEDB5"/><path d="M92.623 72.31a2.5 2.5 0 002.508-2.492 2.5 2.5 0 00-2.508-2.492 2.5 2.5 0 00-2.508 2.492 2.5 2.5 0 002.508 2.492z" fill="#000002"/><path d="M92.623 73.09c-1.818 0-3.296-1.469-3.296-3.274 0-1.806 1.478-3.275 3.296-3.275 1.817 0 3.295 1.469 3.295 3.275 0 1.805-1.478 3.274-3.296 3.274zm0-4.984c-.949 0-1.72.767-1.72 1.71 0 .941.771 1.708 1.72 1.708.948 0 1.72-.767 1.72-1.709 0-.942-.772-1.709-1.72-1.709zM78 114.448c-9.954 0-17.752-5.454-17.752-12.419a2.511 2.511 0 012.52-2.504c1.392 0 2.52 1.121 2.52 2.504 0 4.018 5.822 7.413 12.712 7.413 6.891 0 12.713-3.395 12.713-7.413a2.511 2.511 0 012.52-2.504c1.392 0 2.52 1.121 2.52 2.504-.001 6.965-7.799 12.419-17.753 12.419z" fill="#FFEDB5"/><path d="M93.232 99.526a2.511 2.511 0 00-2.52 2.503c0 4.018-5.822 7.413-12.712 7.413-.147 0-.292-.004-.438-.007v5.006c.146.003.29.007.438.007 9.954 0 17.752-5.454 17.752-12.419a2.511 2.511 0 00-2.52-2.503z" fill="#FEE187"/></svg>