<svg width="156" height="155" fill="none" xmlns="http://www.w3.org/2000/svg"><g clip-path="url(#clip0)"><path d="M78 155c43.078 0 78-34.698 78-77.5S121.078 0 78 0 0 34.698 0 77.5 34.922 155 78 155z" fill="#273B7A"/><path d="M155.995 77.093l-26.581-26.41-89.633 50.581 52.73 52.392C128.654 146.898 156 115.374 156 77.5c0-.136-.005-.27-.005-.407z" fill="#121149"/><path d="M52.408 69.622c4.395-4.754 3.407-11.887-2.21-15.931-3.882-2.797-14.616-3.673-20.87-3.947-2.427-.106-4.217 1.829-3.612 3.906 1.558 5.354 4.683 24.898 8.565 27.694 5.616 4.044 13.732-6.968 18.127-11.722z" fill="#898989"/><path d="M103.592 69.622c-4.395-4.754-3.406-11.887 2.21-15.931 3.882-2.797 14.616-3.673 20.87-3.947 2.427-.106 4.217 1.829 3.612 3.906-1.558 5.354-4.683 24.898-8.565 27.694-5.616 4.044-13.732-6.968-18.127-11.722z" fill="#69696B"/><path d="M123.305 82.96c0 21.181-20.284 30.523-45.305 30.523-25.02 0-45.305-9.342-45.305-30.523 0-21.18 20.284-38.457 45.305-38.457s45.305 17.276 45.305 38.457z" fill="#DBDBDD"/><path d="M123.305 82.96c0-21.181-20.284-38.458-45.304-38.458v68.98c25.02 0 45.304-9.341 45.304-30.522z" fill="#C1C1C1"/><path d="M60.252 87.077a3.152 3.152 0 003.162-3.142 3.152 3.152 0 00-3.162-3.142 3.152 3.152 0 00-3.162 3.142 3.152 3.152 0 003.162 3.142zM95.748 87.077a3.152 3.152 0 003.162-3.142 3.152 3.152 0 00-3.162-3.142 3.152 3.152 0 00-3.162 3.142 3.152 3.152 0 003.162 3.142z" fill="#121149"/><path d="M81.589 104.453h-1.827v-8.297c0-.967-.79-1.75-1.762-1.75-.973 0-1.763.784-1.763 1.75v8.297h-1.826c-.974 0-1.763.784-1.763 1.751 0 .967.79 1.751 1.763 1.751h7.178c.973 0 1.762-.784 1.762-1.751 0-.967-.789-1.751-1.762-1.751z" fill="#263A7A"/><path d="M81.589 104.453h-1.827v-8.297c0-.967-.79-1.75-1.762-1.75v13.55h3.589c.973 0 1.762-.784 1.762-1.751 0-.967-.789-1.752-1.762-1.752z" fill="#121149"/><path d="M91.2 62.659l8.942-13.235a49.444 49.444 0 00-8.149-3.037l-3.724 14.81c-.47 1.873 1.865 3.039 2.93 1.462z" fill="#69696B"/><path d="M64.399 62.66c1.066 1.576 3.402.41 2.93-1.464l-3.697-14.701a49.374 49.374 0 00-8.076 3.077l8.843 13.087zM79.93 68.91l4.144-24.052A53.466 53.466 0 0078 44.502c-2.198 0-4.357.141-6.471.398l4.136 24.01a2.15 2.15 0 004.266 0z" fill="#898989"/><path d="M78 44.502v26.276c.887-.083 1.73-.7 1.93-1.867l4.144-24.053A53.461 53.461 0 0078 44.502z" fill="#69696B"/><path d="M74.658 96.463l-3.425-4.378c-1.694-2.165.203-5.008 3.342-5.008h6.85c3.139 0 5.037 2.843 3.343 5.008l-3.425 4.378c-1.563 1.997-5.123 1.997-6.685 0z" fill="#121149"/><path d="M81.425 87.078H78V97.96c1.28 0 2.561-.499 3.342-1.497l3.425-4.379c1.694-2.165-.203-5.007-3.342-5.007z" fill="#0C0C42"/></g><defs><clipPath id="clip0"><path fill="#fff" d="M0 0h156v155H0z"/></clipPath></defs></svg>