<svg width="155" height="155" fill="none" xmlns="http://www.w3.org/2000/svg"><path d="M77.5 155c42.802 0 77.5-34.698 77.5-77.5S120.302 0 77.5 0 0 34.698 0 77.5 34.698 155 77.5 155z" fill="#273B7A"/><path d="M94.408 39.731l-41.92 70.391 42.818 42.819c27.709-6.515 49.68-27.9 57.038-55.274L94.408 39.73z" fill="#121149"/><path d="M77.5 110.465c14.087 0 25.507-11.42 25.507-25.507 0-14.087-11.42-25.507-25.507-25.507-14.087 0-25.507 11.42-25.507 25.507 0 14.087 11.42 25.507 25.507 25.507z" fill="#D48B07"/><path d="M103.007 84.957c0-14.058-11.373-25.458-25.42-25.505v51.009c14.047-.047 25.42-11.446 25.42-25.504z" fill="#B77100"/><path d="M55.597 52.285c0-12.097 9.806-18.774 21.903-18.774s21.903 6.678 21.903 18.774S89.597 74.188 77.5 74.188s-21.903-9.806-21.903-21.903z" fill="#FFC61B"/><path d="M99.403 52.285c0-12.068-9.76-18.74-21.816-18.772v40.673c12.056-.048 21.816-9.834 21.816-21.901z" fill="#EDAF14"/><path d="M66.201 58.078a2.012 2.012 0 100-4.024 2.012 2.012 0 000 4.024zM88.799 58.078a2.012 2.012 0 100-4.024 2.012 2.012 0 000 4.024z" fill="#121149"/><path d="M77.5 58.997l3.882 2.192-3.882 8.99-3.882-8.99 3.882-2.192z" fill="#D48B07"/><path d="M77.587 59.046v10.932l3.795-8.789-3.795-2.143z" fill="#B77100"/><path d="M112.988 81.075l-7.101 7.763-7.101-7.763-7.097 7.763-7.099-7.763-7.096 7.763-7.095-7.763-7.097 7.763-7.097-7.763-7.096 7.763-7.097-7.763v3.882c0 19.599 15.888 35.488 35.488 35.488s35.488-15.889 35.488-35.488v-3.882z" fill="#fff"/><path d="M105.887 88.838l-7.102-7.763-7.096 7.763-7.099-7.763-7.003 7.66v31.707c19.56-.047 35.402-15.915 35.402-35.486v-3.882l-7.102 7.764z" fill="#D6D6D6"/></svg>