<svg width="155" height="156" fill="none" xmlns="http://www.w3.org/2000/svg"><path d="M77.5 156c42.802 0 77.5-34.922 77.5-78S120.302 0 77.5 0 0 34.922 0 78s34.698 78 77.5 78z" fill="#71E2F0"/><path d="M38.043 66.582L48.44 77.046V65.255l-10.397 1.327zM154.751 71.739l-29.422-29.612c-18.044 28.007-50.977 40.08-74.445 63.186-.338.34.843 2.233.535 2.635l45.338 45.623C130.243 144.954 155 114.387 155 78c0-2.108-.086-4.195-.249-6.261z" fill="#386895"/><path d="M97.331 61.504c-3.636-5.775-1.932-13.423 3.806-17.083 3.967-2.53 14.194-2.047 20.128-1.508 2.303.21 3.783 2.56 2.988 4.746-2.049 5.63-5.982 15.145-9.949 17.675-5.738 3.66-13.337 1.945-16.973-3.83z" fill="#E87E70"/><path d="M107.745 69.88a14.888 14.888 0 01-12.618-6.97c-4.4-6.99-2.331-16.278 4.613-20.707 3.534-2.254 10.856-2.897 21.76-1.905a6.075 6.075 0 014.624 2.841 6.156 6.156 0 01.579 5.422c-3.766 10.348-7.468 16.737-11.003 18.992a14.746 14.746 0 01-7.955 2.326zm-8.21-9.782c2.86 4.543 8.859 5.896 13.372 3.018 2.399-1.529 5.724-7.645 8.896-16.36a.903.903 0 00-.087-.805.893.893 0 00-.685-.421c-9.184-.834-16.098-.42-18.496 1.11-4.514 2.878-5.86 8.916-3 13.458z" fill="#D8D8D8"/><path d="M57.669 61.504c3.636-5.775 1.932-13.423-3.806-17.083-3.967-2.53-14.194-2.046-20.128-1.508-2.303.21-3.783 2.56-2.988 4.746 2.049 5.63 5.981 15.145 9.949 17.675 5.738 3.66 13.337 1.945 16.973-3.83z" fill="#FFAD9E"/><path d="M47.256 69.88a14.75 14.75 0 01-7.957-2.328c-3.534-2.254-7.237-8.643-11.002-18.99a6.161 6.161 0 01.578-5.422 6.079 6.079 0 014.624-2.842c10.906-.99 18.226-.35 21.76 1.905 6.944 4.429 9.014 13.717 4.614 20.706v.001a14.89 14.89 0 01-12.617 6.97zm-4.791-24.774c-2.511 0-5.372.14-8.496.423a.893.893 0 00-.685.422.904.904 0 00-.087.805c3.172 8.715 6.497 14.83 8.895 16.36a9.576 9.576 0 007.307 1.279 9.628 9.628 0 006.066-4.296c2.86-4.543 1.515-10.58-2.999-13.459-1.582-1.01-5.131-1.534-10.001-1.534z" fill="#fff"/><path d="M41.893 78.584c0 29.026 15.942 38.74 35.607 38.74s35.607-9.714 35.607-38.74c0-29.027-15.942-41.483-35.607-41.483S41.893 49.557 41.893 78.584z" fill="#fff"/><path d="M77.5 37.1c-.058 0-.115.004-.174.004v80.217c.059 0 .116.003.174.003 19.665 0 35.607-9.714 35.607-38.74 0-29.027-15.942-41.483-35.607-41.483z" fill="#D8D8D8"/><path d="M77.5 113.621c14.649 0 26.524-7.71 26.524-17.221 0-9.512-11.875-17.222-26.524-17.222-14.649 0-26.524 7.71-26.524 17.222 0 9.511 11.875 17.221 26.524 17.221z" fill="#FFAD9E"/><path d="M77.5 79.177c-.058 0-.115.003-.174.003v34.439l.174.002c14.649 0 26.524-7.71 26.524-17.221 0-9.512-11.875-17.223-26.524-17.223z" fill="#E87E70"/><path d="M63.868 100.014c1.984 0 3.592-1.618 3.592-3.614 0-1.997-1.608-3.615-3.591-3.615-1.984 0-3.592 1.618-3.592 3.615 0 1.996 1.608 3.614 3.591 3.614zM91.132 100.014c1.983 0 3.591-1.618 3.591-3.614 0-1.997-1.608-3.615-3.591-3.615-1.984 0-3.592 1.618-3.592 3.615 0 1.996 1.608 3.614 3.591 3.614z" fill="#FF6262"/><path d="M42.027 74.27c37.117 6.943 24.034-22.008 17.862-33.048-9.93 5.33-16.866 16.014-17.862 33.048zM112.973 74.27c-37.117 6.943-24.034-22.008-17.862-33.048 9.931 5.33 16.866 16.014 17.862 33.048z" fill="#3A3A3A"/><path d="M58.3 68.872c.992 0 1.796-.81 1.796-1.808s-.804-1.807-1.796-1.807-1.796.809-1.796 1.807c0 .998.804 1.808 1.796 1.808zM96.7 68.872c.992 0 1.796-.81 1.796-1.808s-.804-1.807-1.796-1.807-1.796.809-1.796 1.807c0 .998.804 1.808 1.796 1.808z" fill="#fff"/></svg>