<svg width="156" height="156" fill="none" xmlns="http://www.w3.org/2000/svg"><path d="M78 156c43.078 0 78-34.922 78-78S121.078 0 78 0 0 34.922 0 78s34.922 78 78 78z" fill="#FFEDB5"/><path d="M102.097 41.495l-58.764 76.416 38.013 38.013c36.178-1.528 65.982-27.693 73.058-62.153l-52.307-52.276z" fill="#FEE187"/><path d="M43.333 117.911V66.392c0-19.146 15.521-34.667 34.667-34.667s34.667 15.521 34.667 34.667v51.519s-33.544 27.123-69.334 0z" fill="#434849"/><path d="M43.333 66.393v51.519c12.066 9.144 23.873 12.118 34.23 12.049V31.737c-18.944.236-34.23 15.657-34.23 34.656z" fill="#434849"/><path d="M112.667 66.392c0-19.146-15.521-34.667-34.667-34.667-.147 0-.291.01-.438.011v98.224c20.363-.136 35.105-12.049 35.105-12.049V66.392z" fill="#181919"/><path d="M59.012 65.842a4.65 4.65 0 100-9.3 4.65 4.65 0 000 9.3z" fill="#434849"/><path d="M59.014 67.418a6.233 6.233 0 01-6.226-6.226 6.233 6.233 0 016.226-6.226 6.233 6.233 0 016.225 6.226 6.233 6.233 0 01-6.225 6.226zm0-9.3a3.077 3.077 0 00-3.075 3.074 3.077 3.077 0 003.075 3.074 3.077 3.077 0 003.074-3.074 3.078 3.078 0 00-3.074-3.074z" fill="#fff"/><path d="M96.988 65.842a4.65 4.65 0 100-9.3 4.65 4.65 0 000 9.3z" fill="#434849"/><path d="M96.987 67.418a6.233 6.233 0 01-6.226-6.226 6.233 6.233 0 016.226-6.226 6.232 6.232 0 016.225 6.226 6.233 6.233 0 01-6.225 6.226zm0-9.3a3.077 3.077 0 00-3.074 3.074 3.077 3.077 0 003.074 3.074 3.077 3.077 0 003.074-3.074 3.077 3.077 0 00-3.074-3.074z" fill="#fff"/><path d="M60.667 65.478c0-7.444 7.76-11.246 17.333-11.246 9.573 0 17.333 3.801 17.333 11.246 0 7.446-7.76 28.28-17.333 28.28-9.573 0-17.333-20.835-17.333-28.28z" fill="#D48B07"/><path d="M78 54.232c-.147 0-.292.004-.438.005v39.505c.146.01.291.015.438.015 9.573 0 17.333-20.835 17.333-28.28 0-7.444-7.76-11.245-17.333-11.245z" fill="#AF7312"/></svg>