<svg width="156" height="156" fill="none" xmlns="http://www.w3.org/2000/svg"><path d="M78 156c43.078 0 78-34.922 78-78S121.078 0 78 0 0 34.922 0 78s34.922 78 78 78z" fill="#366695"/><path d="M155.637 70.471l-28.155-28.163-83.963 58.346 53.109 53.101C130.71 145.404 156 114.658 156 78c0-2.54-.126-5.05-.363-7.529z" fill="#263A7A"/><path d="M55.676 62.158c4.603-5.01 3.567-12.527-2.314-16.79-4.066-2.948-15.305-3.87-21.855-4.16-2.541-.111-4.415 1.928-3.782 4.117 1.632 5.642 4.904 15.238 8.97 18.186 5.88 4.263 14.379 3.657 18.981-1.353z" fill="#995C33"/><path d="M100.324 62.158c-4.603-5.01-3.567-12.527 2.314-16.79 4.066-2.948 15.305-3.87 21.855-4.16 2.541-.111 4.415 1.928 3.782 4.117-1.632 5.642-4.904 15.238-8.969 18.186-5.881 4.263-14.38 3.657-18.982-1.353z" fill="#87502A"/><path d="M123.305 75.616c0 21.318-20.284 38.599-45.305 38.599S32.695 96.934 32.695 75.616C32.695 54.3 52.98 44.79 78 44.79s45.305 9.509 45.305 30.826z" fill="#D48B07"/><path d="M78 44.79l-.175.002v69.419c.059 0 .116.004.175.004 25.021 0 45.305-17.282 45.305-38.6 0-21.317-20.284-30.826-45.305-30.826z" fill="#B7750B"/><path d="M60.252 87.638a3.162 3.162 0 100-6.324 3.162 3.162 0 000 6.325zM95.748 87.638a3.162 3.162 0 100-6.324 3.162 3.162 0 000 6.325z" fill="#121149"/><path d="M78 92.007c-11.03 0-19.972 2.926-19.972 12.52 0 2.213.482 4.327 1.35 6.274 5.681 2.187 11.982 3.414 18.622 3.414 6.64 0 12.94-1.227 18.623-3.414a15.346 15.346 0 001.349-6.274c0-9.594-8.942-12.52-19.972-12.52z" fill="#FEE187"/><path d="M78 92.007l-.175.001v22.203c.059 0 .116.004.175.004 6.64 0 12.94-1.227 18.623-3.414a15.35 15.35 0 001.349-6.274c0-9.594-8.942-12.52-19.972-12.52z" fill="#FFC61B"/><path d="M81.425 89.615h-6.85c-3.139 0-5.037 2.862-3.343 5.04l3.426 4.407c.412.53.963.915 1.58 1.166v11.529a1.762 1.762 0 003.524 0v-11.529a3.783 3.783 0 001.58-1.166l3.426-4.407c1.693-2.178-.204-5.04-3.343-5.04z" fill="#773426"/><path d="M81.425 89.615h-3.6v23.886c.058.006.115.018.175.018.973 0 1.762-.789 1.762-1.762v-11.529a3.78 3.78 0 001.58-1.166l3.426-4.406c1.693-2.18-.204-5.041-3.343-5.041z" fill="#662C22"/></svg>