<svg width="155" height="156" fill="none" xmlns="http://www.w3.org/2000/svg"><path d="M77.5 156c42.802 0 77.5-34.922 77.5-78S120.302 0 77.5 0 0 34.922 0 78s34.698 78 77.5 78z" fill="#FFEDB5"/><path d="M112.23 36.397l-57.56 72.379 43.995 44.279c32.074-9.144 55.684-38.553 56.317-73.61L112.23 36.397z" fill="#FDE085"/><path d="M101.976 65.297c-4.233-.746-6.268-6.242-4.545-12.277 1.192-4.173 6.982-10.974 10.443-14.774 1.343-1.474 3.066-1.17 3.478.613 1.063 4.596 2.601 12.687 1.409 16.86-1.723 6.035-6.552 10.323-10.785 9.578z" fill="#995C33"/><path d="M102.953 67.38c-.441 0-.881-.038-1.318-.115-2.101-.37-3.925-1.647-5.136-3.596-1.79-2.881-2.155-7.07-.975-11.2 1.243-4.355 6.606-10.872 10.887-15.573 1.183-1.3 2.746-1.85 4.181-1.47 1.337.352 2.344 1.467 2.695 2.98 1.323 5.725 2.638 13.472 1.383 17.865-1.859 6.507-6.83 11.108-11.717 11.108zm-.635-4.051c3.199.564 7.111-3.175 8.535-8.162.778-2.723.269-8.436-1.396-15.69a1.954 1.954 0 00-.12.119c-5.562 6.108-9.206 11.202-9.998 13.976-.874 3.06-.678 6.042.526 7.978.623 1.004 1.449 1.602 2.453 1.779z" fill="#663C0E"/><path d="M53.024 65.297c4.233-.746 6.268-6.242 4.545-12.277-1.192-4.173-6.982-10.974-10.443-14.774-1.343-1.474-3.066-1.17-3.478.613-1.063 4.596-2.6 12.687-1.41 16.86 1.724 6.035 6.553 10.323 10.786 9.578z" fill="#995C33"/><path d="M52.047 67.38c-4.887 0-9.858-4.602-11.716-11.11-1.255-4.392.06-12.139 1.383-17.864.35-1.513 1.358-2.627 2.695-2.98 1.437-.38 2.998.17 4.181 1.471 4.28 4.7 9.643 11.217 10.887 15.572 1.18 4.131.815 8.32-.976 11.2-1.21 1.95-3.034 3.227-5.135 3.597a7.663 7.663 0 01-1.319.113zm-6.504-27.903c-1.664 7.254-2.174 12.967-1.396 15.69 1.424 4.987 5.328 8.726 8.535 8.162 1.005-.177 1.83-.775 2.453-1.778 1.203-1.936 1.4-4.919.525-7.978-.792-2.774-4.436-7.868-9.998-13.976a1.673 1.673 0 00-.119-.12z" fill="#663C0E"/><path d="M115.163 73.798c0 20.67-16.862 45.697-37.663 45.697-20.8 0-37.663-25.028-37.663-45.697 0-20.668 16.862-27.576 37.663-27.576 20.8 0 37.663 6.907 37.663 27.576z" fill="#D48B07"/><path d="M77.5 46.222l-.174.002v73.267l.174.003c20.8 0 37.663-25.027 37.663-45.696 0-20.669-16.862-27.576-37.663-27.576z" fill="#AF6E05"/><path d="M74.2 106.443l-3.38-4.378c-1.673-2.164.2-5.007 3.299-5.007h6.762c3.098 0 4.971 2.842 3.3 5.007l-3.382 4.378c-1.542 1.997-5.056 1.997-6.599 0z" fill="#7C4D03"/><path d="M80.881 97.058h-3.555v10.874c1.321.048 2.666-.444 3.473-1.489l3.381-4.377c1.672-2.165-.2-5.008-3.299-5.008z" fill="#663C0E"/><path d="M59.75 88.592c6.874 0 12.445-5.608 12.445-12.525 0-6.917-5.571-12.525-12.444-12.525-6.873 0-12.445 5.608-12.445 12.525 0 6.918 5.572 12.525 12.445 12.525z" fill="#995C33"/><path d="M59.75 90.973c-8.166 0-14.81-6.686-14.81-14.905 0-8.22 6.643-14.906 14.81-14.906 8.166 0 14.81 6.686 14.81 14.906 0 8.219-6.644 14.905-14.81 14.905zm0-25.05c-5.558 0-10.08 4.551-10.08 10.145 0 5.593 4.522 10.144 10.08 10.144 5.557 0 10.079-4.55 10.079-10.144s-4.522-10.145-10.08-10.145z" fill="#663C0E"/><path d="M60.236 78c1.37 0 2.48-1.117 2.48-2.495a2.487 2.487 0 00-2.48-2.495 2.487 2.487 0 00-2.48 2.495A2.487 2.487 0 0060.237 78zM94.764 78c1.37 0 2.48-1.117 2.48-2.495a2.487 2.487 0 00-2.48-2.495 2.487 2.487 0 00-2.479 2.495A2.487 2.487 0 0094.764 78z" fill="#1E262B"/></svg>