<svg width="155" height="156" fill="none" xmlns="http://www.w3.org/2000/svg"><path d="M77.5 156c42.802 0 77.5-34.922 77.5-78S120.302 0 77.5 0 0 34.922 0 78s34.698 78 77.5 78z" fill="#263A7A"/><path d="M50.454 17.276l50.91 51.238H55.796l-5.342-51.238z" fill="#121149"/><path d="M153.126 60.898l-42.618-42.893L54.73 127.872l27.782 27.961C122.978 153.233 155 119.383 155 78c0-5.876-.65-11.598-1.874-17.102z" fill="#121149"/><path d="M93.986 80.343c-7.291-1.645-10.796-13.777-7.828-27.098 2.052-9.21 12.026-24.222 17.985-32.61 2.313-3.254 5.281-2.584 5.991 1.352 1.831 10.145 4.479 28.005 2.427 37.215-2.967 13.32-11.285 22.786-18.575 21.14z" fill="#C4C4C4"/><path d="M95.667 82.67a9.727 9.727 0 01-2.146-.238c-4.317-.974-7.633-4.76-9.338-10.662-1.577-5.46-1.612-12.204-.1-18.993 2.036-9.136 11.092-23.198 18.331-33.387 1.623-2.285 3.739-3.33 5.792-2.864 2.057.465 3.523 2.316 4.021 5.079 2.224 12.323 4.446 28.93 2.41 38.065-3.003 13.474-11.051 23-18.97 23zm-1.216-4.416c6.033 1.359 13.374-7.58 16.035-19.52 1.979-8.881-.682-26.596-2.444-36.365-.232-1.285-.687-1.648-.767-1.666-.071-.021-.644.112-1.401 1.178-5.739 8.076-15.662 22.952-17.64 31.832-1.358 6.096-1.346 12.084.033 16.862 1.252 4.335 3.449 7.062 6.184 7.679z" fill="#878787"/><path d="M61.014 80.343c7.291-1.645 10.795-13.777 7.827-27.098-2.051-9.21-12.025-24.222-17.984-32.61-2.313-3.254-5.28-2.584-5.991 1.352-1.83 10.145-4.48 28.005-2.427 37.215 2.968 13.32 11.285 22.786 18.575 21.14z" fill="#E5E5E5"/><path d="M59.334 82.67c-7.921 0-15.968-9.524-18.97-23-2.036-9.136.186-25.742 2.41-38.066.498-2.763 1.964-4.614 4.02-5.078 2.056-.465 4.168.58 5.793 2.864 7.239 10.188 16.295 24.25 18.33 33.386 1.512 6.79 1.477 13.535-.1 18.993-1.704 5.902-5.02 9.688-9.337 10.662-.711.16-1.43.24-2.146.24zM47.743 20.703l-.017.001c-.08.018-.535.38-.767 1.666-1.763 9.77-4.424 27.484-2.445 36.364 2.661 11.942 10.003 20.88 16.035 19.52 2.736-.617 4.932-3.344 6.184-7.679 1.38-4.777 1.392-10.765.033-16.861-1.978-8.88-11.901-23.757-17.64-31.833-.715-1.006-1.26-1.178-1.383-1.178z" fill="#AFAFAF"/><path d="M46.187 94.79c0 29.277 14.02 39.075 31.313 39.075 17.294 0 31.313-9.798 31.313-39.075S94.793 52.95 77.5 52.95c-17.294 0-31.313 12.564-31.313 41.84z" fill="#B7B7B7"/><path d="M108.813 94.79c0-29.227-13.972-41.796-31.226-41.838v80.911c17.254-.033 31.226-9.845 31.226-39.073z" fill="#878787"/><path d="M76.978 135.719c14.65 0 26.524-7.711 26.524-17.222 0-9.511-11.875-17.222-26.524-17.222-14.649 0-26.524 7.711-26.524 17.222 0 9.511 11.875 17.222 26.524 17.222z" fill="#727272"/><path d="M103.502 118.496c0-9.379-11.548-17.001-25.915-17.212v34.425c14.367-.211 25.915-7.834 25.915-17.213z" fill="#595959"/><path d="M63.346 122.112c1.984 0 3.592-1.619 3.592-3.615 0-1.996-1.608-3.615-3.592-3.615-1.983 0-3.591 1.619-3.591 3.615 0 1.996 1.608 3.615 3.591 3.615zM90.61 122.112c1.984 0 3.592-1.619 3.592-3.615 0-1.996-1.608-3.615-3.592-3.615s-3.592 1.619-3.592 3.615c0 1.996 1.608 3.615 3.592 3.615zM63.832 88.746a2.418 2.418 0 002.41-2.426c0-1.34-1.08-2.425-2.41-2.425a2.418 2.418 0 00-2.41 2.425 2.418 2.418 0 002.41 2.426zM91.168 88.746a2.418 2.418 0 002.41-2.426 2.418 2.418 0 00-2.41-2.425 2.418 2.418 0 00-2.41 2.425 2.418 2.418 0 002.41 2.426z" fill="#3A3A3A"/></svg>