<svg width="156" height="156" fill="none" xmlns="http://www.w3.org/2000/svg"><path d="M78 156c43.078 0 78-34.922 78-78S121.078 0 78 0 0 34.922 0 78s34.922 78 78 78z" fill="#71E2EF"/><path d="M122.31 44.536c-16.809 24.892-42.453 44.7-52.189 73.908-2.291 7.639-10.823 7.648-17.508 8.116l29.34 29.341c41.164-2.056 73.921-36.022 74.044-77.668L122.31 44.536z" fill="#38C6D9"/><path d="M47.01 80.364c11.604 0 21.01-9.407 21.01-21.01 0-11.604-9.406-21.01-21.01-21.01-11.603 0-21.01 9.406-21.01 21.01 0 11.603 9.407 21.01 21.01 21.01z" fill="#919191"/><path d="M107.414 80.364c11.604 0 21.01-9.407 21.01-21.01 0-11.604-9.406-21.01-21.01-21.01-11.603 0-21.01 9.406-21.01 21.01 0 11.603 9.407 21.01 21.01 21.01z" fill="#707070"/><path d="M113.446 65.122c0 19.577-15.87 45.268-35.445 45.268-19.577 0-35.446-25.691-35.446-45.268 0-19.576 15.87-26.779 35.445-26.779 19.576 0 35.446 7.203 35.446 26.78z" fill="#E5E1DF"/><path d="M113.446 65.122c0-19.546-15.823-26.756-35.358-26.777v72.044c19.535-.077 35.358-25.72 35.358-45.267z" fill="#CCC8C6"/><path d="M93.057 99.247s-3.939 40.445-40.444 27.313v-9.98S72.31 127.085 68.02 99.247" fill="#CCC4C0"/><path d="M93.057 99.247h-14.97v26.842c13.1-7.649 14.97-26.842 14.97-26.842z" fill="#A8A19E"/><path d="M65.61 83.856a2.541 2.541 0 100-5.083 2.541 2.541 0 000 5.083zM94.141 83.856a2.541 2.541 0 100-5.083 2.541 2.541 0 000 5.083z" fill="#121149"/></svg>