<svg width="156" height="156" fill="none" xmlns="http://www.w3.org/2000/svg"><g clip-path="url(#clip0)"><path d="M78 156c43.078 0 78-34.922 78-78S121.078 0 78 0 0 34.922 0 78s34.922 78 78 78z" fill="#366695"/><path d="M155.878 73.66l-37.433-37.436-43.4 97.608 20.242 20.242C130.046 146.209 156 115.137 156 78c0-1.456-.044-2.902-.122-4.34z" fill="#263A7A"/><path d="M106.454 69.638c-4.921-.861-7.287-7.21-5.284-14.181 1.385-4.82 8.117-12.675 12.14-17.065 1.561-1.703 3.564-1.353 4.043.707 1.236 5.31 3.024 14.656 1.639 19.476-2.003 6.97-7.617 11.923-12.538 11.063z" fill="#D48B07"/><path d="M107.589 72.116a8.942 8.942 0 01-1.545-.133c-2.463-.431-4.6-1.917-6.019-4.186-2.092-3.346-2.52-8.205-1.142-12.998 1.449-5.044 7.692-12.58 12.673-18.016 1.393-1.52 3.236-2.164 4.932-1.72 1.581.415 2.772 1.722 3.185 3.497 1.541 6.621 3.07 15.583 1.608 20.672-2.169 7.548-7.978 12.884-13.692 12.884zm-.725-4.824c3.681.646 8.195-3.647 9.84-9.376.897-3.118.315-9.653-1.595-17.961l-.043.045c-6.459 7.047-10.689 12.92-11.607 16.114-1.011 3.515-.785 6.94.602 9.158.714 1.14 1.657 1.82 2.803 2.02z" fill="#FFEDB5"/><path d="M49.546 69.638c4.921-.861 7.287-7.21 5.284-14.181-1.385-4.82-8.117-12.675-12.14-17.065-1.56-1.703-3.564-1.353-4.043.707-1.236 5.31-3.024 14.656-1.639 19.476 2.003 6.97 7.617 11.923 12.538 11.063z" fill="#D48B07"/><path d="M48.41 72.116c-5.713 0-11.522-5.336-13.69-12.884-1.463-5.088.066-14.05 1.607-20.672.413-1.775 1.605-3.081 3.186-3.496 1.696-.444 3.538.2 4.932 1.72 4.98 5.435 11.223 12.972 12.672 18.016 1.378 4.793.951 9.652-1.142 12.998-1.419 2.268-3.556 3.754-6.018 4.186a9.03 9.03 0 01-1.546.132zm-7.518-32.161c-1.91 8.308-2.492 14.844-1.596 17.962 1.646 5.726 6.15 10.022 9.84 9.375 1.146-.2 2.09-.88 2.802-2.02 1.388-2.219 1.613-5.643.602-9.158-.917-3.194-5.148-9.067-11.607-16.114l-.041-.045z" fill="#FFEDB5"/><path d="M119.583 75.616c0 21.318-31.603 53.859-41.583 53.859-10.33 0-41.583-32.541-41.583-53.859C36.417 54.3 55.034 44.79 78 44.79c22.966 0 41.583 9.509 41.583 30.826z" fill="#FEE187"/><path d="M119.582 75.616c0-21.29-18.57-30.801-41.495-30.825v84.68c10.075-.184 41.495-32.598 41.495-53.855z" fill="#FFC61B"/><path d="M60.252 86.02a3.162 3.162 0 100-6.324 3.162 3.162 0 000 6.325zM95.748 86.02a3.162 3.162 0 100-6.323 3.162 3.162 0 000 6.324z" fill="#1E262B"/><path d="M74.658 133.445l-3.425-4.407c-1.695-2.179.203-5.04 3.342-5.04h6.85c3.139 0 5.037 2.861 3.343 5.04l-3.426 4.407c-1.562 2.009-5.122 2.009-6.684 0z" fill="#773426"/><path d="M81.425 123.998h-3.337v10.95c1.25-.023 2.49-.521 3.254-1.503l3.425-4.406c1.694-2.18-.203-5.041-3.342-5.041z" fill="#662A20"/><path d="M66.161 45.724l11.84 73.029 11.838-73.03C86.085 45.1 82.114 44.79 78 44.79c-4.114 0-8.085.311-11.839.935z" fill="#B77204"/><path d="M78.088 44.791v73.421l11.75-72.488c-3.725-.619-7.667-.928-11.75-.932z" fill="#995B00"/></g><defs><clipPath id="clip0"><path fill="#fff" d="M0 0h156v156H0z"/></clipPath></defs></svg>