<svg width="155" height="156" fill="none" xmlns="http://www.w3.org/2000/svg"><path d="M77.5 156c42.802 0 77.5-34.922 77.5-78S120.302 0 77.5 0 0 34.922 0 78s34.698 78 77.5 78z" fill="#71E2EF"/><path d="M64.114 35.448l27.72 27.898-25.969-2.68-6.282-21.192 4.531-4.026zM99.748 34.22l27.72 27.897-25.97-2.68-11.603-1.747 9.853-23.47z" fill="#38C6D9"/><path d="M113.224 40.048l-45.836 83.183 29.902 30.198c31.896-8.454 55.748-36.853 57.592-71.147l-41.658-42.234z" fill="#38C6D9"/><path d="M97.628 64.42l1.72-8.836a9.477 9.477 0 012.271-3.698L111.742 41.7l1.45 13.131a9.498 9.498 0 01-2.696 7.734l-7.567 7.616" fill="#BC770A"/><path d="M102.929 72.404a2.194 2.194 0 01-1.563-.651 2.234 2.234 0 010-3.145l7.568-7.617a7.226 7.226 0 002.061-5.915l-.942-8.532-6.871 6.916a7.286 7.286 0 00-1.694 2.702l-1.692 8.686c-.234 1.206-1.4 1.996-2.594 1.755a2.223 2.223 0 01-1.743-2.611l1.72-8.835c.019-.094.043-.186.073-.275a11.756 11.756 0 012.804-4.567l10.123-10.188c.6-.604 1.491-.81 2.294-.526a2.224 2.224 0 011.466 1.853l1.449 13.131a11.67 11.67 0 01-3.33 9.553l-7.567 7.616c-.431.433-.996.65-1.562.65z" fill="#FEE187"/><path d="M57.372 64.42l-1.72-8.836a9.471 9.471 0 00-2.271-3.698L43.258 41.7l-1.45 13.131a9.496 9.496 0 002.696 7.734l7.567 7.616" fill="#D48B07"/><path d="M52.071 72.404a2.193 2.193 0 01-1.562-.651l-7.568-7.616a11.67 11.67 0 01-3.33-9.553l1.45-13.132c.094-.85.663-1.57 1.465-1.853a2.197 2.197 0 012.294.527l10.123 10.187a11.757 11.757 0 012.805 4.567c.03.09.054.182.072.275l1.721 8.835a2.223 2.223 0 01-1.743 2.611c-1.197.243-2.36-.548-2.594-1.754L53.51 56.16a7.292 7.292 0 00-1.694-2.702l-6.87-6.915-.943 8.531a7.229 7.229 0 002.062 5.916l7.567 7.616a2.234 2.234 0 010 3.146 2.19 2.19 0 01-1.562.651z" fill="#FFEDB5"/><path d="M46.573 72.343c0-12.519 8.35-21.274 30.927-21.274 22.99 0 30.927 8.755 30.927 21.274 0 19.16-13.23 55.294-30.927 55.294-16.437-.001-30.927-36.135-30.927-55.294z" fill="#D48B07"/><path d="M77.5 51.07l-.174.001v76.56c.058 0 .116.005.174.005 17.698 0 30.927-36.133 30.927-55.293 0-12.519-7.937-21.274-30.927-21.274z" fill="#BC770A"/><path d="M80.004 91.94l7.29-40.234c-2.909-.417-6.162-.637-9.794-.637-3.623 0-6.876.228-9.79.658l7.286 40.214c.508 2.802 4.5 2.802 5.008 0z" fill="#B77204"/><path d="M77.5 51.07h-.174v42.96c1.18.076 2.411-.615 2.678-2.089l7.29-40.235c-2.909-.417-6.163-.637-9.794-.637z" fill="#995C05"/><path d="M77.5 127.636c4.948 0 9.546-2.826 13.604-7.313-2.585-4.665-7.706-7.842-13.604-7.842-5.737 0-10.737 3.008-13.386 7.465 4.104 4.704 8.664 7.69 13.386 7.69z" fill="#FFEDB5"/><path d="M77.5 112.481c-.058 0-.115.005-.174.006v15.143c.058.001.116.007.174.007 4.948 0 9.546-2.826 13.604-7.314-2.585-4.665-7.706-7.842-13.604-7.842z" fill="#FEE187"/><path d="M63.341 89.057a2.53 2.53 0 002.521-2.537 2.53 2.53 0 00-2.52-2.538 2.53 2.53 0 00-2.522 2.538 2.53 2.53 0 002.521 2.537zM91.653 89.057a2.53 2.53 0 002.522-2.537 2.53 2.53 0 00-2.522-2.538 2.53 2.53 0 00-2.52 2.538 2.53 2.53 0 002.52 2.537zM71.702 121.096c.57 0 1.032-.465 1.032-1.039 0-.574-.462-1.039-1.032-1.039-.57 0-1.033.465-1.033 1.039 0 .574.463 1.039 1.033 1.039zM83.298 121.096c.57 0 1.033-.465 1.033-1.039 0-.574-.463-1.039-1.033-1.039-.57 0-1.032.465-1.032 1.039 0 .574.462 1.039 1.032 1.039z" fill="#1E262B"/><path d="M62.737 42.65a5.699 5.699 0 002.1-4.424c0-3.14-2.539-5.696-5.66-5.696-3.12 0-5.66 2.555-5.66 5.696 0 2.907 2.175 5.306 4.97 5.65l3.227 11.278a2.214 2.214 0 002.122 1.609 2.226 2.226 0 002.125-2.84L62.737 42.65z" fill="#FFEDB5"/><path d="M101.482 38.226c0-3.14-2.539-5.696-5.66-5.696s-5.66 2.555-5.66 5.696c0 1.785.82 3.378 2.1 4.424l-3.224 11.272a2.226 2.226 0 002.125 2.841c.96 0 1.844-.635 2.122-1.61l3.227-11.278c2.796-.343 4.97-2.742 4.97-5.649z" fill="#FEE187"/></svg>