<svg width="156" height="156" fill="none" xmlns="http://www.w3.org/2000/svg"><g clip-path="url(#clip0)"><path d="M78 156c43.078 0 78-34.922 78-78S121.078 0 78 0 0 34.922 0 78s34.922 78 78 78z" fill="#FF6161"/><path d="M155.768 71.947L109.821 26c-15.226 2.455-19.273 18.565-23.417 31.515-6.303 18.384-17.334 34.141-25.212 52-1.742 4.065-4.931 7.806-8.675 11.14l34.79 34.79C125.998 150.843 156 117.928 156 78a79.26 79.26 0 00-.232-6.053zM29.983 84.39l13.963 13.963V79.576L29.983 84.39zM31.034 58.566l7.047 7.047.613-7.835-7.66.788zM37.337 38.956l6.215 6.216 2.102-6.96-8.318.744z" fill="#D33939"/><path d="M95.07 20.222l11.272 11.271-15.385 1.335 4.114-12.606z" fill="#D33939"/><path d="M78 131.05c-35.892 0-43.202-46.66-43.202-46.66h-4.815c-3.414-15.582 5.253-25.825 5.253-25.825h-4.202C33.222 44.385 41.626 39.57 41.626 39.57l-4.29-.613c5.078-7.091 11.819-9.192 11.819-9.192L46.179 26c8.491-2.977 16.72.437 16.72.437l-1.97-6.215C71.434 20.616 78 27.838 78 27.838s6.567-7.222 17.072-7.616l-1.97 6.215s8.229-3.414 16.72-.437l-2.976 3.764s6.74 2.102 11.818 9.192l-4.29.613s8.404 4.815 10.593 18.997h-4.202s8.667 10.242 5.253 25.825h-4.815S116.431 131.05 78 131.05z" fill="#434849"/><path d="M120.765 58.566h4.201c-2.188-14.182-10.592-18.997-10.592-18.997l4.289-.613c-5.077-7.091-11.818-9.192-11.818-9.192L109.822 26c-8.492-2.977-16.72.437-16.72.437l1.968-6.215C84.566 20.616 78 27.838 78 27.838s-.06-.065-.175-.182v103.391c.059 0 .116.003.175.003 38.431 0 43.202-46.66 43.202-46.66h4.815c3.414-15.582-5.252-25.825-5.252-25.825z" fill="#353838"/><path d="M99.682 44.58c-5.636 4.74-14.409 11.059-23.185 13.154l2.89-6.391s-4.39 4.727-17.395 7.09v-4.989s-5.838 4.4-14.402 6.448c-.005.208-.018.412-.018.623 0 14.612 22.87 36.919 30.429 36.919 7.303 0 30.428-22.306 30.428-36.92 0-7.23-3.34-12.475-8.747-15.934z" fill="#EFEEED"/><path d="M79.386 51.343s-.474.508-1.56 1.271v2.181l1.56-3.452zM99.682 44.58c-5.351 4.502-13.531 10.418-21.857 12.797v40.05c.058.002.119.007.175.007 7.303 0 30.429-22.305 30.429-36.918 0-7.232-3.34-12.477-8.747-15.936z" fill="#E5E1DF"/><path d="M63.75 71.314a2.537 2.537 0 100-5.075 2.537 2.537 0 000 5.075zM92.25 71.314a2.537 2.537 0 100-5.075 2.537 2.537 0 000 5.075z" fill="#1E262B"/><path d="M75.317 100.621l-2.75-3.537c-1.36-1.75.164-4.046 2.684-4.046h5.499c2.52 0 4.042 2.297 2.683 4.046l-2.75 3.537c-1.254 1.613-4.112 1.613-5.366 0z" fill="#FF6262"/><path d="M80.75 93.038h-2.925v8.784c1.085.049 2.196-.349 2.858-1.201l2.75-3.537c1.36-1.75-.164-4.046-2.683-4.046z" fill="#D33939"/></g><defs><clipPath id="clip0"><path fill="#fff" d="M0 0h156v156H0z"/></clipPath></defs></svg>