<svg width="155" height="155" fill="none" xmlns="http://www.w3.org/2000/svg"><path d="M77.5 155c42.802 0 77.5-34.698 77.5-77.5S120.302 0 77.5 0 0 34.698 0 77.5 34.698 155 77.5 155z" fill="#366796"/><path d="M106.877 39.726l-57.208 76.549 38.01 38.059c34.795-4.565 62.322-32.208 66.71-67.058l-47.512-47.55z" fill="#273B7A"/><path d="M53.952 53.755a8.225 8.225 0 100-16.45 8.225 8.225 0 000 16.45z" fill="#919191"/><path d="M101.048 53.755a8.226 8.226 0 10-.001-16.451 8.226 8.226 0 00.001 16.45z" fill="#727171"/><path d="M107.235 93.614c1.019-4.322 1.578-9.32 1.578-15.089 0-29.089-14.019-41.572-31.313-41.572-17.293 0-31.313 12.483-31.313 41.572 0 5.334.476 10.011 1.352 14.103-2.794 3.175-4.398 6.844-4.398 10.756 0 12.056 15.15 21.83 33.837 21.83 18.687 0 33.836-9.774 33.836-21.83.001-3.513-1.294-6.83-3.579-9.77z" fill="#E5E1DF"/><path d="M110.815 103.384c0-3.513-1.294-6.83-3.58-9.77 1.019-4.323 1.578-9.32 1.578-15.089 0-29.09-14.019-41.572-31.313-41.572-.058 0-.115.003-.174.004v88.251c18.527-.121 33.489-9.843 33.489-21.824z" fill="#C4C2C0"/><path d="M59.704 109.753a4.124 4.124 0 100-8.247 4.124 4.124 0 000 8.247zM95.296 109.753a4.124 4.124 0 100-8.247 4.124 4.124 0 000 8.247zM67.882 72.52a2.41 2.41 0 100-4.82 2.41 2.41 0 000 4.82zM87.118 72.52a2.41 2.41 0 100-4.82 2.41 2.41 0 000 4.82z" fill="#3A3A3A"/></svg>