<svg width="156" height="155" fill="none" xmlns="http://www.w3.org/2000/svg"><path d="M78 155c43.078 0 78-34.698 78-77.5S121.078 0 78 0 0 34.698 0 77.5 34.922 155 78 155z" fill="#366695"/><path d="M127.604 59.132L21.408 86.985l67.667 67.234c34.788-4.914 62.182-32.63 66.365-67.434l-27.836-27.653z" fill="#263A7A"/><path d="M19.434 80.765c0-9.658 7.88-25.963 17.602-25.963 9.722 0 17.602 0 17.602 9.66s-7.88 25.317-17.602 25.317c-9.721 0-17.602.646-17.602-9.014z" fill="#995C33"/><path d="M101.363 64.462c0-9.659 7.88-9.66 17.602-9.66 9.721 0 17.601 16.305 17.601 25.963 0 9.659-7.881 9.014-17.602 9.014s-17.601-15.658-17.601-25.317z" fill="#844921"/><path d="M118.038 83.763c0 21.25-17.926 32.347-40.038 32.347s-40.038-11.097-40.038-32.347S55.887 45.287 78 45.287c22.113 0 40.038 17.227 40.038 38.476z" fill="#BF8B67"/><path d="M118.038 83.763c0-21.221-17.879-38.428-39.95-38.474v70.819c22.071-.029 39.95-11.123 39.95-32.345z" fill="#9B6C4C"/><path d="M58.802 85.717c1.87 0 3.386-1.506 3.386-3.364 0-1.857-1.516-3.364-3.386-3.364s-3.386 1.507-3.386 3.364c0 1.858 1.516 3.364 3.386 3.364zM97.198 85.717c1.87 0 3.386-1.506 3.386-3.364 0-1.857-1.516-3.364-3.386-3.364s-3.386 1.507-3.386 3.364c0 1.858 1.516 3.364 3.386 3.364z" fill="#3A3A3A"/><path d="M67.524 95.05c0-7.587 4.69-13.738 10.476-13.738 5.786 0 10.476 6.15 10.476 13.738 0 7.587-4.69 8.007-10.476 8.007-5.786 0-10.476-.419-10.476-8.007z" fill="#434849"/><path d="M88.476 95.05c0-7.549-4.643-13.674-10.388-13.736v21.743c5.745-.004 10.388-.458 10.388-8.007z" fill="#292D2D"/></svg>