<svg width="155" height="155" fill="none" xmlns="http://www.w3.org/2000/svg"><path d="M77.5 155c42.802 0 77.5-34.698 77.5-77.5S120.302 0 77.5 0 0 34.698 0 77.5 34.698 155 77.5 155z" fill="#FF0F27"/><path d="M124.973 58.148l-81.498 42.056 52.56 52.559c30.691-7.533 54.198-33.342 58.32-65.233l-29.382-29.382z" fill="#940030"/><path d="M38.896 79.426c6.923 0 12.536-5.613 12.536-12.536 0-6.923-5.613-12.536-12.536-12.536-6.923 0-12.535 5.613-12.535 12.536 0 6.923 5.612 12.536 12.535 12.536z" fill="#D48B07"/><path d="M116.104 79.426c6.923 0 12.535-5.613 12.535-12.536 0-6.923-5.612-12.536-12.535-12.536s-12.536 5.613-12.536 12.536c0 6.923 5.613 12.536 12.536 12.536z" fill="#B26F04"/><path d="M122.514 75.132c0 21.18-20.153 38.351-45.014 38.351-24.86 0-45.014-17.17-45.014-38.351 0-21.181 20.153-30.63 45.014-30.63 24.861 0 45.014 9.449 45.014 30.63z" fill="#FFC61B"/><path d="M77.5 44.502l-.174.002v68.975c.059 0 .116.003.174.003 24.861 0 45.014-17.17 45.014-38.35 0-21.182-20.153-30.63-45.014-30.63z" fill="#EDB026"/><path d="M59.495 83.443a2.88 2.88 0 100-5.76 2.88 2.88 0 000 5.76zM95.505 83.443a2.88 2.88 0 100-5.76 2.88 2.88 0 000 5.76z" fill="#121149"/><path d="M77.5 86.597c-10.959 0-19.844 7.728-19.844 17.259 0 2.2.478 4.3 1.34 6.235 5.646 2.173 11.906 3.392 18.504 3.392 6.598 0 12.858-1.22 18.504-3.392a15.249 15.249 0 001.34-6.234c0-9.532-8.885-17.26-19.844-17.26z" fill="#FEE187"/><path d="M77.5 86.597c-.058 0-.116.004-.174.004v26.877c.059 0 .116.004.174.004 6.598 0 12.858-1.219 18.503-3.392a15.249 15.249 0 001.34-6.234c0-9.531-8.884-17.258-19.843-17.258z" fill="#FFC61B"/><path d="M80.903 85.483h-6.807c-3.118 0-5.004 2.843-3.32 5.008l3.403 4.378c.41.526.958.91 1.57 1.158v11.455a1.751 1.751 0 003.502 0V96.027a3.763 3.763 0 001.57-1.158l3.403-4.378c1.683-2.165-.202-5.008-3.32-5.008z" fill="#940030"/><path d="M80.903 85.483h-3.577v23.733c.058.005.115.018.174.018.967 0 1.751-.785 1.751-1.751V96.027a3.763 3.763 0 001.57-1.158l3.403-4.378c1.683-2.165-.202-5.008-3.32-5.008z" fill="#773426"/><path d="M57.951 50.231c3.096 2.966 3.242 7.764 7.241 7.764 4 0 8.56-3.684 7.241-7.764-.726-2.248-1.488-4.087-2.5-5.415-4.652.39-9.059 1.153-13.11 2.305-.268.976.006 2.035 1.128 3.11z" fill="#D48B07"/><path d="M67.912 50.231c.547 1.696-1.348 3.227-3.01 3.227-1.663 0-1.724-1.994-3.01-3.227-1.727-1.653 1.347-3.226 3.01-3.226 1.662 0 2.364 1.232 3.01 3.226z" fill="#D6A11D"/><path d="M90.358 46.917c-2.126 3.723-6.744 5.03-5.773 8.909.97 3.88 5.651 7.41 9.288 5.14 4.279-2.67 6.744-5.03 5.773-8.91-.438-1.751-1.793-3.984-3.41-5.451a65.126 65.126 0 00-4.786-.992c-.392.298-.76.722-1.092 1.304z" fill="#D48B07"/><path d="M92.776 56.579c-1.512.943-3.458-.524-3.861-2.137-.404-1.613 1.516-2.156 2.4-3.703 1.185-2.077 3.457.524 3.86 2.136.404 1.613-.621 2.594-2.4 3.704z" fill="#D6A11D"/><path d="M37.096 82.42c-.759 1.33-1.835 2.35-2.861 3.29 1.328 3.952 3.372 7.644 6.02 10.961.12-.061.24-.128.357-.202 4.279-2.67 6.744-5.03 5.773-8.909-.97-3.88-6.437-10.135-9.289-5.14z" fill="#D48B07"/><path d="M38.053 86.243c-.736 1.29-2.186 1.883-2.419 2.977.412.888.852 1.764 1.338 2.618.762.553 1.716.76 2.542.245 1.778-1.11 2.803-2.09 2.4-3.703-.404-1.613-2.675-4.213-3.861-2.137z" fill="#D6A11D"/><path d="M81.76 65.063c-.645 2.78-4.51 3.322-6.793 1.953-2.284-1.37-.725-4.158-1.477-6.912-1.008-3.694 4.51-3.322 6.793-1.953 2.283 1.37 2.233 3.64 1.476 6.912z" fill="#D48B07"/><path d="M79.177 63.515c-.268 1.155-1.874 1.38-2.824.811-.949-.569-.3-1.728-.613-2.872-.42-1.536 1.874-1.381 2.823-.812.95.569.928 1.513.614 2.873z" fill="#D6A11D"/><path d="M49.08 98.858c-1.839-1.103-5.777-1.557-6.71.24a42.872 42.872 0 008.164 6.743c.007-.024.017-.046.023-.071.757-3.271.807-5.543-1.476-6.912z" fill="#D48B07"/><path d="M47.362 101.348c-.724-.433-2.224-.624-2.714-.012a42.81 42.81 0 003.355 2.751c.284-1.285.275-2.188-.641-2.739z" fill="#D6A11D"/><path d="M118.859 84.593c-2.283-1.369-7.802-1.74-6.792 1.953.752 2.754-.807 5.543 1.476 6.912.868.52 1.964.763 3.025.714 1.625-2.415 2.959-4.989 3.942-7.696-.29-.752-.811-1.379-1.651-1.883zM114.476 96.993c-1.136-2.407-2.606-3.81-5.167-3.81-3.473 0-9.895 3.285-6.288 6.74 1.498 1.435 2.201 3.362 3.13 4.789 3.172-2.233 5.972-4.834 8.325-7.719z" fill="#D48B07"/><path d="M117.754 89.957c-.268 1.156-1.875 1.38-2.824.812-.949-.569-.301-1.729-.613-2.873-.42-1.536 1.874-1.38 2.823-.812.948.57.928 1.513.614 2.873zM111.67 99.923c-.56-1.732-1.17-2.802-2.614-2.802-1.443 0-4.112 1.366-2.613 2.802 1.04.997 1.159 2.563 2.333 2.776a41.978 41.978 0 002.924-2.647c-.01-.043-.016-.085-.03-.129z" fill="#D6A11D"/></svg>