<svg width="156" height="155" fill="none" xmlns="http://www.w3.org/2000/svg"><path d="M78 155c43.078 0 78-34.698 78-77.5S121.078 0 78 0 0 34.698 0 77.5 34.922 155 78 155z" fill="#FFC61B"/><path d="M28.59 84.584l17.702 18.949 2.086-16.454-19.787-2.495zM126.867 61.362l-76.565 50.184 42.323 42.088c32.227-6.074 57.437-31.844 62.46-64.234l-28.218-28.038z" fill="#D48B07"/><path d="M40.16 89.386c8.98 0 16.26-7.233 16.26-16.155s-7.28-16.156-16.26-16.156-16.259 7.233-16.259 16.156c0 8.922 7.28 16.155 16.26 16.155z" fill="#C86031"/><path d="M115.839 89.386c8.98 0 16.26-7.233 16.26-16.155s-7.28-16.156-16.26-16.156-16.26 7.233-16.26 16.156c0 8.922 7.28 16.155 16.26 16.155z" fill="#AA431B"/><path d="M78 122.236c22.113 0 40.04-17.225 40.04-38.473 0-21.249-17.927-38.474-40.04-38.474S37.96 62.514 37.96 83.763c0 21.248 17.927 38.473 40.04 38.473z" fill="#915F4E"/><path d="M78 45.287c-.147 0-.29.009-.438.01v76.931c.147.002.291.01.438.01 22.112 0 40.038-17.226 40.038-38.476S100.112 45.287 78 45.287z" fill="#724438"/><path d="M106.715 78.971c0-8.5-6.935-15.39-15.49-15.39-5.599 0-10.504 2.953-13.225 7.376a15.501 15.501 0 00-13.225-7.376c-8.555 0-15.49 6.89-15.49 15.39 0 7.736 5.744 14.136 13.225 15.225v5.159c0 8.5 6.935 15.39 15.49 15.39s15.49-6.89 15.49-15.39v-5.159c7.481-1.09 13.225-7.49 13.225-15.225z" fill="#FFC192"/><path d="M91.225 63.58c-5.599 0-10.504 2.954-13.225 7.377-.14-.226-.287-.445-.438-.664v44.44c.146.005.291.011.438.011 8.555 0 15.49-6.89 15.49-15.39v-5.159c7.481-1.089 13.225-7.49 13.225-15.225 0-8.499-6.935-15.39-15.49-15.39z" fill="#E09563"/><path d="M64.958 81.333c1.3 0 2.355-1.048 2.355-2.34a2.348 2.348 0 00-2.355-2.34 2.348 2.348 0 00-2.355 2.34 2.348 2.348 0 002.355 2.34zM91.404 81.333c1.301 0 2.356-1.048 2.356-2.34a2.348 2.348 0 00-2.356-2.34 2.348 2.348 0 00-2.355 2.34 2.348 2.348 0 002.355 2.34zM80.61 98.152c.961 0 1.74-.774 1.74-1.728 0-.955-.779-1.728-1.74-1.728-.96 0-1.739.773-1.739 1.728 0 .954.78 1.728 1.74 1.728zM75.39 98.152c.96 0 1.739-.774 1.739-1.728 0-.955-.779-1.728-1.74-1.728-.96 0-1.739.773-1.739 1.728 0 .954.779 1.728 1.74 1.728z" fill="#121149"/></svg>