<svg width="155" height="155" fill="none" xmlns="http://www.w3.org/2000/svg"><path d="M77.5 155c42.802 0 77.5-34.698 77.5-77.5S120.302 0 77.5 0 0 34.698 0 77.5 34.698 155 77.5 155z" fill="#FFC61B"/><path d="M121.447 56.932L61.934 127.28l26.894 26.894c33.493-4.906 60.025-31.231 65.239-64.623l-32.62-32.62z" fill="#D48B07"/><path d="M43.917 81.399c7.97 0 14.43-6.461 14.43-14.43 0-7.97-6.46-14.43-14.43-14.43s-14.43 6.46-14.43 14.43c0 7.969 6.46 14.43 14.43 14.43z" fill="#C86031"/><path d="M111.083 81.399c7.97 0 14.43-6.461 14.43-14.43 0-7.97-6.46-14.43-14.43-14.43-7.969 0-14.43 6.46-14.43 14.43 0 7.969 6.461 14.43 14.43 14.43z" fill="#AF4217"/><path d="M117.281 77.5c0 21.25-28.125 59.36-39.781 59.36-14.09 0-39.781-38.11-39.781-59.36S55.529 25.833 77.5 25.833c21.97 0 39.781 30.418 39.781 51.667z" fill="#774639"/><path d="M77.5 25.833c-.145 0-.29.007-.435.01v110.999c.146.008.292.018.435.018 11.656 0 39.781-38.11 39.781-59.36S99.471 25.833 77.5 25.833z" fill="#603229"/><path d="M106.03 72.708c0-8.5-6.89-15.39-15.39-15.39-5.564 0-10.437 2.953-13.14 7.375-2.704-4.422-7.577-7.375-13.141-7.375-8.5 0-15.39 6.89-15.39 15.39 0 7.736 5.707 14.136 13.14 15.225V98.31c0 8.5 6.89 15.391 15.39 15.391s15.39-6.891 15.39-15.39V87.932c7.434-1.09 13.141-7.49 13.141-15.225z" fill="#FFC192"/><path d="M90.64 57.318c-5.563 0-10.436 2.952-13.14 7.375a15.854 15.854 0 00-.435-.663v49.66c.145.004.29.011.435.011 8.5 0 15.39-6.891 15.39-15.39V87.932c7.434-1.09 13.141-7.49 13.141-15.225-.001-8.5-6.891-15.39-15.39-15.39z" fill="#EFA573"/><path d="M64.541 75.07a2.34 2.34 0 100-4.68 2.34 2.34 0 000 4.68zM90.819 75.07a2.34 2.34 0 100-4.68 2.34 2.34 0 000 4.68zM80.094 96.45a1.728 1.728 0 100-3.456 1.728 1.728 0 000 3.456zM74.906 96.45a1.728 1.728 0 100-3.456 1.728 1.728 0 000 3.456z" fill="#121149"/></svg>