<svg width="155" height="155" fill="none" xmlns="http://www.w3.org/2000/svg"><path d="M77.5 155c42.802 0 77.5-34.698 77.5-77.5S120.302 0 77.5 0 0 34.698 0 77.5 34.698 155 77.5 155z" fill="#FFEDB5"/><path d="M154.56 69.23l-27.689-27.69-67.096 74.888 36.32 36.321C129.916 144.419 155 113.891 155 77.5c0-2.794-.151-5.552-.44-8.27z" fill="#FEE187"/><path d="M39.904 68.767c8.922 0 16.155-7.233 16.155-16.156 0-8.922-7.233-16.155-16.155-16.155-8.923 0-16.156 7.233-16.156 16.155 0 8.923 7.233 16.156 16.155 16.156z" fill="#C86031"/><path d="M98.943 52.61c0-8.922 7.233-16.2 16.156-16.155 8.975.046 16.212 7.282 16.155 16.156-.057 8.922-7.233 16.155-16.155 16.155-8.923 0-16.156-7.233-16.156-16.155z" fill="#AF4E28"/><path d="M40.987 71.356c0-20.165 16.347-31.78 36.513-31.78 20.166 0 36.513 11.615 36.513 31.78S97.665 125.18 77.5 125.18s-36.513-33.66-36.513-53.825z" fill="#D48B07"/><path d="M77.5 39.576c-.146 0-.29.007-.435.008v85.585c.145.004.29.011.435.011 20.165 0 36.513-33.66 36.513-53.825 0-20.166-16.348-31.779-36.513-31.779z" fill="#AA6B07"/><path d="M63.832 80.563a2.41 2.41 0 100-4.82 2.41 2.41 0 000 4.82zM91.168 80.563a2.41 2.41 0 100-4.82 2.41 2.41 0 000 4.82z" fill="#3A3A3A"/><path d="M83.589 122.755c0 4.756-2.92 8.61-6.524 8.61-3.603 0-6.523-3.855-6.523-8.61 0-4.755 2.92-5.018 6.523-5.018 3.603 0 6.524.263 6.524 5.018z" fill="#434849"/><path d="M77.065 117.737v13.628c3.603 0 6.524-3.854 6.524-8.61 0-4.755-2.92-5.018-6.524-5.018z" fill="#313738"/></svg>