<svg width="155" height="156" fill="none" xmlns="http://www.w3.org/2000/svg"><g clip-path="url(#clip0)"><path d="M77.5 156c42.802 0 77.5-34.922 77.5-78S120.302 0 77.5 0 0 34.922 0 78s34.698 78 77.5 78z" fill="#FFC61B"/><path d="M87.42 31.35c-2.257 6.559-1.783 6.415-2.092 9.883 0 4.727-4.697 7.878-5.218 12.606-3.653 15.232-7.307 28.363-16.7 41.495-1.566 2.1-1.566 6.303-2.088 9.979-1.044 3.152-.522 6.829-2.088 9.455-3.653 6.828-13.939 6.631-20.201 4.53-3.859-1.456-8.204-.568-11.771-.455l35.528 35.748A77.422 77.422 0 0077.5 156c36.282 0 66.736-25.094 75.174-58.977L87.421 31.35z" fill="#D48B07"/><path d="M60.278 94.351s5.306 20.154-8.263 18.053c-10.698-1.656-18.995-.886-24.56 3.521-1.508 1.195-.562 3.654 1.353 3.509 5.209-.395 12.424.886 20.47 5.314 11.218 6.171 32.615-5.778 27.266-29.809l-16.266-.588z" fill="#366695"/><path d="M52.144 81.783s-2.458 16.645-12.52 12.27c-7.932-3.45-14.495-4.538-19.677-2.261-1.404.617-1.165 2.708.343 2.984 4.102.752 9.42 3.205 14.75 8.257 7.428 7.043 29.939 4.648 30.619-15l-13.515-6.25z" fill="#366695"/><path d="M94.61 94.351s-5.306 20.154 8.263 18.053c10.698-1.656 18.995-.886 24.559 3.521 1.509 1.195.562 3.654-1.353 3.509-5.208-.395-12.424.886-20.47 5.314-11.217 6.171-32.615-5.778-27.265-29.809l16.266-.588z" fill="#273B7A"/><path d="M102.743 81.783s2.458 16.645 12.52 12.27c7.932-3.45 14.496-4.538 19.677-2.261 1.405.617 1.166 2.708-.342 2.984-4.103.752-9.421 3.205-14.75 8.257-7.429 7.043-29.94 4.648-30.62-15l13.515-6.25z" fill="#273B7A"/><path d="M105.722 81.944c0 20.142-12.636 17.602-28.222 17.602-15.586 0-28.221 2.541-28.221-17.602 0-20.142 12.635-55.34 28.221-55.34s28.222 35.198 28.222 55.34z" fill="#273B7A"/><path d="M77.5 26.605c-.058 0-.116.005-.174.005v72.936h.174c15.586 0 28.222 2.54 28.222-17.603 0-20.142-12.636-55.338-28.222-55.338z" fill="#121149"/><path d="M63.53 85.793c1.1 0 1.991-.898 1.991-2.005a1.998 1.998 0 00-1.992-2.005c-1.1 0-1.992.898-1.992 2.005 0 1.107.892 2.005 1.992 2.005zM91.47 85.793c1.101 0 1.993-.898 1.993-2.005a1.998 1.998 0 00-1.992-2.005c-1.1 0-1.992.898-1.992 2.005 0 1.107.892 2.005 1.992 2.005z" fill="#71E2EF"/></g><defs><clipPath id="clip0"><path fill="#fff" d="M0 0h155v156H0z"/></clipPath></defs></svg>