<svg width="156" height="156" fill="none" xmlns="http://www.w3.org/2000/svg"><g clip-path="url(#clip0)"><path d="M78 156c43.078 0 78-34.922 78-78S121.078 0 78 0 0 34.922 0 78s34.922 78 78 78z" fill="#FF7F4F"/><path d="M82.183 14.193c-12.093 17.589-11.908 39.89-9.436 60.655 2.498 23.476 3.158 49.713-2.13 73.142L78 156c39.852 0 72.721-29.889 77.42-68.473L82.183 14.193z" fill="#E03A00"/><path d="M68.02 155.367c3.268.417 6.599.633 9.98.633 3.381 0 6.712-.216 9.98-.633V68.02H68.02v87.347z" fill="#FFC61B"/><path d="M77.825 68.02v87.977L78 156c3.381 0 6.712-.216 9.98-.633V68.02H77.825z" fill="#E0A103"/><path d="M78 78c15.955 0 28.889-10.523 28.889-23.505S93.955 30.99 78 30.99 49.111 41.513 49.111 54.495 62.045 78 78 78z" fill="#FEE187"/><path d="M78 30.99c-.059 0-.116.003-.175.004v47.002c.059 0 .116.004.175.004 15.955 0 28.889-10.524 28.889-23.505 0-12.982-12.934-23.505-28.889-23.505z" fill="#FFC61B"/><path d="M71.139 89.96c0-2.424 1.58-11.176 3.53-11.176 1.95 0 3.531 8.751 3.531 11.176 0 2.425-1.58 4.392-3.53 4.392-1.95 0-3.531-1.967-3.531-4.392z" fill="#FF5419"/><path d="M77.8 89.96c0-2.424 1.58-11.176 3.53-11.176 1.95 0 3.53 8.751 3.53 11.176 0 2.425-1.58 4.392-3.53 4.392-1.95-.001-3.53-1.967-3.53-4.392z" fill="#E23F13"/><path d="M86.462 44.73a9.762 9.762 0 00-8.663 5.259 9.762 9.762 0 00-8.662-5.259c-5.393 0-9.765 4.372-9.765 9.765 0 5.393 4.371 9.765 9.765 9.765A9.762 9.762 0 0077.799 59a9.762 9.762 0 008.663 5.26c5.392 0 9.765-4.372 9.765-9.765 0-5.393-4.373-9.765-9.765-9.765z" fill="#fff"/><path d="M86.462 44.73a9.76 9.76 0 00-8.637 5.213v9.103a9.76 9.76 0 008.637 5.214c5.392 0 9.765-4.372 9.765-9.765 0-5.394-4.373-9.765-9.765-9.765z" fill="#DDD"/><path d="M68.982 56.385a1.89 1.89 0 100-3.78 1.89 1.89 0 000 3.78zM86.304 56.385a1.89 1.89 0 100-3.78 1.89 1.89 0 000 3.78z" fill="#273B7A"/><path d="M73.136 17.932a5.296 5.296 0 1110.592 0c0 2.925-2.371 13.963-5.296 13.963-2.925 0-5.296-11.038-5.296-13.963z" fill="#FFC61B"/><path d="M68.332 23.023a5.297 5.297 0 019.972-3.575c.987 2.754 2.48 13.944-.273 14.932-2.754.987-8.711-8.603-9.699-11.357z" fill="#FFEDB5"/><path d="M70.617 65.3c0-3.084 3.216-4.659 7.182-4.659 3.967 0 7.183 1.575 7.183 4.66 0 3.084-3.216 11.718-7.183 11.718-3.966 0-7.182-8.633-7.182-11.718z" fill="#273B7A"/><path d="M84.982 65.3c0-3.077-3.202-4.651-7.157-4.659v16.376c3.955-.038 7.157-8.638 7.157-11.716z" fill="#121149"/></g><defs><clipPath id="clip0"><path fill="#fff" d="M0 0h156v156H0z"/></clipPath></defs></svg>