<svg width="156" height="156" fill="none" xmlns="http://www.w3.org/2000/svg"><path d="M78 156c43.078 0 78-34.922 78-78S121.078 0 78 0 0 34.922 0 78s34.922 78 78 78z" fill="#aeafd1"></path><path d="M124.639 52.773l-79.094 56.883 45.27 45.29c35.079-5.798 62.261-34.999 64.963-71.03l-31.139-31.143z" fill="#1E262B"></path><path d="M42.871 79.18c8.679 0 15.714-7.035 15.714-15.714 0-8.678-7.035-15.714-15.714-15.714-8.678 0-15.714 7.036-15.714 15.714 0 8.679 7.036 15.714 15.714 15.714z" fill="#848A8C"></path><path d="M113.124 79.18c8.678 0 15.714-7.035 15.714-15.714 0-8.678-7.036-15.714-15.714-15.714-8.679 0-15.714 7.036-15.714 15.714 0 8.679 7.035 15.714 15.714 15.714z" fill="#515556"></path><path d="M78 121.727c24.367 0 44.121-16.755 44.121-37.424S102.367 46.88 78 46.88 33.879 63.634 33.879 84.303 53.633 121.727 78 121.727z" fill="#EDEEEF"></path><path d="M78 46.88c-.059 0-.116.003-.175.003v74.841c.059 0 .116.004.175.004 24.367 0 44.121-16.756 44.121-37.425 0-20.668-19.754-37.424-44.121-37.424z" fill="#c5d5e6"></path><path d="M70.537 86.33c-1.356-5.382-7.96-8.357-14.751-6.645-6.791 1.711-11.197 7.461-9.84 12.843 1.356 5.381 7.96 8.356 14.751 6.644 6.791-1.711 11.196-7.46 9.84-12.842z" fill="#63696B"></path><path d="M60.625 91.92a2.495 2.495 0 100-4.99 2.495 2.495 0 000 4.99z" fill="#1E262B"></path><path d="M85.456 86.328c-1.357 5.381 3.049 11.13 9.84 12.842 6.79 1.712 13.395-1.263 14.751-6.644 1.356-5.382-3.049-11.132-9.84-12.843-6.79-1.712-13.395 1.263-14.751 6.645z" fill="#515556"></path><path d="M95.376 91.92a2.495 2.495 0 100-4.99 2.495 2.495 0 000 4.99z" fill="#1E262B"></path><path d="M75.035 106.021l-3.038-3.909c-1.502-1.933.18-4.47 2.964-4.47h6.077c2.784 0 4.467 2.537 2.965 4.47l-3.039 3.909c-1.385 1.782-4.543 1.782-5.929 0z" fill="#3F4649"></path><path d="M81.039 97.641h-3.213v9.708c1.193.048 2.41-.391 3.14-1.328l3.038-3.909c1.501-1.933-.182-4.47-2.965-4.47z" fill="#383A3A"></path></svg>