<svg width="156" height="156" fill="none" xmlns="http://www.w3.org/2000/svg"><path d="M78 156c43.078 0 78-34.922 78-78S121.078 0 78 0 0 34.922 0 78s34.922 78 78 78z" fill="#FF6161"/><path d="M105.302 47.052L39.455 100.77l53.735 53.747c30.052-5.933 53.904-29.124 60.793-58.821l-48.681-48.644z" fill="#D33939"/><path d="M124.047 89.03c0 9.037-20.616 27.576-46.047 27.576-25.431 0-46.047-19.94-46.047-27.575 0-23.014 20.616-54.802 46.047-54.802 25.431 0 46.047 31.788 46.047 54.802z" fill="#fff"/><path d="M78 34.23l-.175.002v82.371l.175.002c25.431 0 46.047-18.538 46.047-27.574 0-23.014-20.616-54.802-46.047-54.802z" fill="#E2E1E0"/><path d="M111.4 54.117c-8.39-11.39-20.25-19.888-33.4-19.888-13.149 0-25.01 8.498-33.4 19.888 10.453 1.417 23.03 7.398 22.437 28.105v4.882c0 6.055 4.908 10.963 10.963 10.963 6.055 0 10.964-4.908 10.964-10.963v-4.882c-.593-20.707 11.983-26.688 22.436-28.105z" fill="#434849"/><path d="M111.4 54.117c-8.39-11.39-20.25-19.888-33.4-19.888l-.175.003v63.826c.059.001.116.009.175.009 6.055 0 10.963-4.908 10.963-10.964v-4.881c-.592-20.707 11.984-26.688 22.437-28.105z" fill="#181919"/><path d="M85.387 90.66S82.08 96.667 78 96.667s-7.387-6.007-7.387-6.007S73.92 84.653 78 84.653s7.387 6.007 7.387 6.007z" fill="#FFC61B"/><path d="M78 84.653c-.059 0-.117.006-.175.008V96.66c.058.002.116.008.175.008 4.08 0 7.387-6.007 7.387-6.007S82.08 84.653 78 84.653z" fill="#EFAF11"/><path d="M55.818 80.186a2.537 2.537 0 100-5.075 2.537 2.537 0 000 5.075zM100.181 80.186a2.538 2.538 0 100-5.076 2.538 2.538 0 000 5.076z" fill="#1E262B"/></svg>