<svg width="155" height="155" fill="none" xmlns="http://www.w3.org/2000/svg"><path d="M77.5 155c42.802 0 77.5-34.698 77.5-77.5S120.302 0 77.5 0 0 34.698 0 77.5 34.698 155 77.5 155z" fill="#71E2EF"/><path d="M154.97 75.368l-31.313-31.313L22.18 86.22l68.408 67.673C127.156 147.673 155 115.841 155 77.5c0-.714-.011-1.424-.03-2.132z" fill="#38C6D9"/><path d="M31.343 44.055s13.335-3.276 19.54 2.929c6.204 6.205 7.515 14.952 2.929 19.54-4.587 4.587-13.335 3.275-19.54-2.93-6.204-6.205-2.929-19.54-2.929-19.54z" fill="#63696B"/><path d="M101.189 66.522c-4.587-4.586-3.276-13.334 2.929-19.538 6.204-6.205 19.539-2.93 19.539-2.93s3.276 13.336-2.929 19.54c-6.205 6.204-14.952 7.516-19.539 2.928z" fill="#5B5F60"/><path d="M125.559 82.589c0 20.536-21.516 29.356-48.059 29.356-26.542 0-48.06-8.82-48.06-29.356S50.959 44.36 77.5 44.36c26.543 0 48.059 17.693 48.059 38.229z" fill="#434849"/><path d="M125.559 82.589c0-20.514-21.47-38.19-47.972-38.227v67.582c26.502-.019 47.972-8.841 47.972-29.355z" fill="#303333"/><path d="M73.79 76.563c-2.372-8.71-12.877-14.187-23.46-12.234C39.746 66.282 22.18 86.22 22.18 86.22s26.16 11.601 36.744 9.648c10.584-1.953 17.24-10.597 14.867-19.306z" fill="#F8FEFF"/><path d="M71.479 77.452c-1.762-6.466-9.558-10.533-17.413-9.083-7.855 1.45-21.435 16.253-21.435 16.253s19.958 8.613 27.813 7.163c7.856-1.45 12.796-7.867 11.035-14.333z" fill="#6D7375"/><path d="M58.66 84.326a3.33 3.33 0 100-6.66 3.33 3.33 0 000 6.66z" fill="#333535"/><path d="M81.21 76.563c2.372-8.71 12.877-14.187 23.46-12.234 10.584 1.953 28.15 21.892 28.15 21.892s-26.16 11.601-36.744 9.648c-10.584-1.953-17.24-10.597-14.867-19.306z" fill="#F8FEFF"/><path d="M83.521 77.452c1.762-6.466 9.558-10.533 17.413-9.083 7.855 1.45 21.435 16.253 21.435 16.253s-19.958 8.613-27.813 7.163c-7.856-1.45-12.796-7.867-11.035-14.333z" fill="#6D7375"/><path d="M96.34 84.326a3.33 3.33 0 100-6.66 3.33 3.33 0 000 6.66z" fill="#333535"/><path d="M93.322 110.762a13.74 13.74 0 00.356-3.106c0-8.206-7.243-13.717-16.178-13.717s-16.178 5.511-16.178 13.717c0 1.065.124 2.105.356 3.106 4.955.796 10.279 1.183 15.822 1.183 5.543 0 10.867-.387 15.822-1.183z" fill="#92999B"/><path d="M93.678 107.656c0-8.179-7.196-13.68-16.09-13.715v18.002c5.511-.004 10.805-.39 15.734-1.181a13.74 13.74 0 00.356-3.106z" fill="#6D7375"/><path d="M74.554 105.341l-3.019-3.884c-1.492-1.92.18-4.442 2.946-4.442h6.038c2.766 0 4.438 2.522 2.945 4.442l-3.019 3.884c-1.376 1.771-4.514 1.771-5.89 0z" fill="#434849"/><path d="M80.52 97.016h-2.932v9.649c1.099-.022 2.188-.461 2.858-1.324l3.02-3.884c1.491-1.92-.181-4.441-2.947-4.441z" fill="#303333"/></svg>