<svg width="156" height="155" fill="none" xmlns="http://www.w3.org/2000/svg"><path d="M78 155c43.078 0 78-34.698 78-77.5S121.078 0 78 0 0 34.698 0 77.5 34.922 155 78 155z" fill="#FFC61B"/><path d="M108.56 40.204c-.112 7.17-4.188 13.386-7.974 19.03-12.606 19.31-23.111 37.054-33.091 56.886-1.988 3.16-6.686 5.124-11.586 6.798l31.7 31.497c35.48-4.332 63.585-32.332 67.831-67.618l-46.88-46.593z" fill="#D48B07"/><path d="M101.185 62.925c-3.54-.615-5.241-5.153-3.8-10.135.996-3.445 5.839-9.06 8.732-12.197 1.124-1.217 2.564-.966 2.909.506.889 3.795 2.175 10.474 1.179 13.919-1.442 4.981-5.48 8.522-9.02 7.907z" fill="#666564"/><path d="M54.815 62.925c3.54-.615 5.241-5.153 3.8-10.135-.997-3.445-5.839-9.06-8.733-12.197-1.123-1.217-2.563-.966-2.908.506-.89 3.795-2.175 10.474-1.179 13.919 1.442 4.981 5.48 8.522 9.02 7.907z" fill="#898989"/><path d="M46.222 81.535c0 28.669 14.228 46.588 31.778 46.588 17.55 0 31.778-17.919 31.778-46.588 0-28.67-14.228-36.996-31.778-36.996-17.55 0-31.778 8.326-31.778 36.996z" fill="#C1C1C1"/><path d="M78 44.54h-.175v83.577c.059.001.116.006.175.006 17.55 0 31.778-17.918 31.778-46.588S95.55 44.54 78 44.54z" fill="#A3A3A3"/><path d="M59.275 94.525a2.028 2.028 0 002.034-2.02c0-1.117-.91-2.022-2.034-2.022a2.028 2.028 0 00-2.035 2.021c0 1.117.911 2.021 2.035 2.021zM96.725 94.525a2.028 2.028 0 002.035-2.02c0-1.117-.911-2.022-2.035-2.022a2.028 2.028 0 00-2.034 2.021c0 1.117.91 2.021 2.034 2.021z" fill="#3A3A3A"/><path d="M102.641 115.094c0 8.926-11.288 14.072-25.212 14.072s-25.212-5.146-25.212-14.072c0-8.925 11.288-12.718 25.212-12.718s25.212 3.793 25.212 12.718z" fill="#898989"/><path d="M102.641 115.094c0-8.84-11.075-12.643-24.816-12.714v26.782c13.741-.097 24.816-5.227 24.816-14.068z" fill="#666564"/><path d="M68.463 117.878c0 1.761-1.437 3.188-3.208 3.188-1.772 0-3.209-1.427-3.209-3.188 0-1.76 1.437-5.797 3.209-5.797 1.771 0 3.208 4.036 3.208 5.797zM92.811 117.878c0 1.761-1.436 3.188-3.208 3.188-1.772 0-3.208-1.427-3.208-3.188 0-1.76 1.436-5.797 3.208-5.797 1.772 0 3.209 4.036 3.209 5.797z" fill="#3A3A3A"/><path d="M84.828 93.855c0 4.415-3.057 5.079-6.828 5.079-3.771 0-6.828-.664-6.828-5.08 0-4.414 3.057-30.618 6.828-30.618 3.771 0 6.828 26.204 6.828 30.619z" fill="#fff"/><path d="M78 63.235a.839.839 0 00-.175.019v35.678l.175.002c3.771 0 6.828-.664 6.828-5.08 0-4.415-3.057-30.619-6.828-30.619z" fill="#E5E4E3"/></svg>