<svg width="155" height="155" fill="none" xmlns="http://www.w3.org/2000/svg"><path d="M77.5 155c42.802 0 77.5-34.698 77.5-77.5S120.302 0 77.5 0 0 34.698 0 77.5 34.698 155 77.5 155z" fill="#FF7F4F"/><path d="M151.134 101.723a77.19 77.19 0 001.333-4.516c.348-1.33.667-2.673.946-4.031l-.009-.009a77.7 77.7 0 00.904-5.302l-73.5-73.498L77.5 31.522l18.12 18.803-52.565 66.83 37.77 37.769c31.211-1.318 57.644-21.093 68.669-48.693l.001.001c.012-.028.022-.057.033-.086a76.887 76.887 0 001.547-4.245l.059-.178z" fill="#FF5419"/><path d="M43.056 117.155V65.966c0-19.023 15.42-34.444 34.444-34.444 19.023 0 34.444 15.421 34.444 34.444v51.189s-33.328 26.95-68.888 0z" fill="#FFEDB5"/><path d="M111.945 65.966c0-19.023-15.422-34.444-34.445-34.444-.058 0-.115.004-.174.004v97.599c20.098-.233 34.619-11.97 34.619-11.97V65.966z" fill="#FEE187"/><path d="M90.656 50.657c-5.721 0-10.682 3.242-13.155 7.988-2.474-4.746-7.435-7.988-13.156-7.988-8.19 0-14.83 6.64-14.83 14.83 0 8.191 6.64 14.831 14.83 14.831 5.721 0 10.683-3.242 13.156-7.987 2.473 4.745 7.434 7.987 13.155 7.987 8.19 0 14.831-6.64 14.831-14.83-.001-8.19-6.64-14.83-14.83-14.83z" fill="#FF5419"/><path d="M90.656 50.657c-5.721 0-10.682 3.242-13.155 7.988-.055-.105-.117-.205-.174-.308V72.64c.057-.104.119-.204.174-.308 2.473 4.745 7.434 7.987 13.155 7.987 8.19 0 14.831-6.64 14.831-14.83-.001-8.192-6.64-14.832-14.83-14.832z" fill="#E03A00"/><path d="M70.683 96.526c0-2.41 1.57-11.105 3.508-11.105 1.937 0 3.508 8.696 3.508 11.105 0 2.41-1.57 4.363-3.508 4.363-1.937 0-3.508-1.953-3.508-4.363z" fill="#FF7F4F"/><path d="M77.3 96.526c0-2.41 1.571-11.105 3.509-11.105 1.937 0 3.508 8.696 3.508 11.105 0 2.41-1.571 4.363-3.508 4.363-1.938 0-3.508-1.953-3.508-4.363z" fill="#D48B07"/><path d="M77.5 80.079l5.083 2.87-5.083 14.83-5.083-14.83 5.083-2.87z" fill="#FFC61B"/><path d="M82.583 82.949l-5.083-2.87-.174.098v17.096l.174.507 5.083-14.831z" fill="#DD9F05"/><path d="M64.103 68.356a2.87 2.87 0 100-5.74 2.87 2.87 0 000 5.74zM90.417 68.356a2.87 2.87 0 100-5.74 2.87 2.87 0 000 5.74z" fill="#273B7A"/><path d="M72.437 18.605a5.262 5.262 0 1110.524 0c0 2.906-2.356 13.873-5.262 13.873-2.906 0-5.262-10.967-5.262-13.873z" fill="#940030"/><path d="M67.665 23.663a5.263 5.263 0 019.907-3.552c.981 2.736 2.464 13.855-.271 14.836-2.737.98-8.655-8.548-9.636-11.284z" fill="#840030"/></svg>