<svg width="156" height="155" fill="none" xmlns="http://www.w3.org/2000/svg"><g clip-path="url(#clip0)"><path d="M78 155c43.078 0 78-34.698 78-77.5S121.078 0 78 0 0 34.698 0 77.5 34.922 155 78 155z" fill="#C2001B"/><path d="M155.413 67.974l-25.391-25.23-70.8 91.382 20.976 20.842C122.259 153.812 156 119.572 156 77.5c0-3.225-.202-6.404-.587-9.526z" fill="#940030"/><path d="M99.955 63.002c-4.025-6.312-2.139-14.67 4.213-18.67 4.392-2.766 15.715-2.237 22.284-1.648 2.549.229 4.188 2.799 3.307 5.186-2.268 6.154-6.621 16.553-11.014 19.318-6.352 4-14.764 2.126-18.79-4.186z" fill="#E87E70"/><path d="M111.487 70.86c-1.116 0-2.239-.122-3.354-.37a15.09 15.09 0 01-9.509-6.65c-4.483-7.031-2.375-16.376 4.701-20.831 4.563-2.873 15.172-2.61 23.269-1.885a5.436 5.436 0 014.129 2.505 5.368 5.368 0 01.517 4.78c-2.796 7.584-7.086 17.227-11.651 20.102a15.167 15.167 0 01-8.102 2.35zm-10.201-8.696a11.96 11.96 0 007.537 5.27c3.138.7 6.363.142 9.08-1.568 2.935-1.848 6.717-8.604 10.377-18.534.25-.678.17-1.417-.219-2.027a2.305 2.305 0 00-1.75-1.062c-10.602-.951-18.365-.436-21.3 1.411-5.608 3.531-7.279 10.938-3.725 16.51z" fill="#D8D8D8"/><path d="M56.045 63.002c4.025-6.312 2.139-14.67-4.213-18.67-4.392-2.766-15.715-2.237-22.284-1.648-2.55.229-4.188 2.799-3.307 5.186 2.268 6.154 6.621 16.553 11.014 19.318 6.351 4 14.764 2.126 18.79-4.186z" fill="#FFAD9E"/><path d="M44.518 70.851c-2.78 0-5.59-.756-8.108-2.34-4.563-2.874-8.854-12.518-11.65-20.102a5.371 5.371 0 01.516-4.78 5.438 5.438 0 014.13-2.505c8.096-.727 18.704-.989 23.269 1.884 7.076 4.456 9.184 13.8 4.7 20.831-2.888 4.53-7.821 7.012-12.857 7.012zm-5.345-27.076c-2.806 0-5.99.154-9.484.468a2.304 2.304 0 00-1.75 1.062 2.275 2.275 0 00-.22 2.026c3.662 9.93 7.444 16.687 10.378 18.534 5.609 3.53 13.063 1.87 16.617-3.701 3.554-5.573 1.882-12.98-3.726-16.51-1.968-1.24-6.107-1.879-11.815-1.879z" fill="#fff"/><path d="M127.082 76.032c0 5.112-5.988 10.058-7.634 15.807-1.492 5.213 1.204 12.395-1.418 17.437-2.608 5.016-10.026 6.947-13.544 11.142-3.764 4.486-4.636 12.168-9.195 14.943-4.97 3.026-11.693.017-17.292.017-5.598 0-12.322 3.009-17.292-.018-4.557-2.774-5.43-10.456-9.194-14.942-3.518-4.194-10.936-6.125-13.544-11.142-2.622-5.041.073-12.224-1.418-17.436-1.645-5.75-7.633-10.696-7.633-15.808 0-4.898 5.874-8.777 7.39-13.186 1.56-4.541-.661-11.162 2.238-14.928 2.899-3.764 9.94-3.386 13.904-6.114 3.887-2.674 5.976-9.373 10.628-10.8 4.463-1.37 9.985 2.936 14.921 2.936s10.46-4.306 14.922-2.936c4.652 1.427 6.741 8.127 10.628 10.8 3.964 2.728 11.005 2.35 13.903 6.114 2.9 3.766.678 10.386 2.239 14.928 1.516 4.409 7.391 8.289 7.391 13.186z" fill="#fff"/><path d="M127.082 76.032c0-4.897-5.875-8.776-7.39-13.186-1.561-4.541.661-11.162-2.239-14.927-2.898-3.765-9.939-3.387-13.904-6.114-3.887-2.674-5.976-9.373-10.627-10.8-4.463-1.37-9.986 2.936-14.922 2.936-.058 0-.117-.004-.175-.005V135.38l.175-.002c5.598 0 12.321 3.009 17.292-.017 4.558-2.775 5.43-10.456 9.195-14.943 3.518-4.195 10.936-6.126 13.544-11.142 2.622-5.042-.074-12.224 1.418-17.437 1.644-5.749 7.633-10.695 7.633-15.807z" fill="#D8D8D8"/><path d="M108.465 70.521c0-9.017-7.358-16.328-16.434-16.328A16.446 16.446 0 0078 62.018a16.445 16.445 0 00-14.031-7.825c-9.076 0-16.434 7.31-16.434 16.328 0 8.207 6.094 14.998 14.031 16.153v5.473c0 9.017 7.358 16.328 16.434 16.328s16.434-7.31 16.434-16.328v-5.473c7.937-1.156 14.031-7.946 14.031-16.153z" fill="#FFAD9E"/><path d="M92.031 54.193A16.446 16.446 0 0078 62.018c-.056-.09-.118-.176-.175-.265v46.717c.058.001.116.004.175.004 9.076 0 16.434-7.31 16.434-16.328v-5.472c7.936-1.156 14.031-7.947 14.031-16.154 0-9.016-7.358-16.327-16.434-16.327z" fill="#E87E70"/><path d="M90.67 73.504c1.3 0 2.355-1.047 2.355-2.34a2.348 2.348 0 00-2.356-2.34 2.348 2.348 0 00-2.355 2.34 2.348 2.348 0 002.355 2.34zM65.326 73.504c1.3 0 2.355-1.047 2.355-2.34a2.348 2.348 0 00-2.355-2.34 2.348 2.348 0 00-2.356 2.34 2.348 2.348 0 002.356 2.34z" fill="#121149"/><path d="M82.07 89.633h-8.14c-.726 0-1.314.584-1.314 1.305 0 .72.588 1.305 1.313 1.305h2.758v9.785c0 .721.588 1.305 1.313 1.305.726 0 1.314-.584 1.314-1.305v-9.785h2.757c.726 0 1.313-.584 1.313-1.305a1.31 1.31 0 00-1.313-1.305z" fill="#773426"/><path d="M82.07 89.633h-4.245v13.682c.058.008.115.018.175.018.725 0 1.313-.584 1.313-1.305v-9.785h2.758c.725 0 1.313-.584 1.313-1.305a1.31 1.31 0 00-1.313-1.305z" fill="#7C012E"/></g><defs><clipPath id="clip0"><path fill="#fff" d="M0 0h156v155H0z"/></clipPath></defs></svg>