<svg width="156" height="155" fill="none" xmlns="http://www.w3.org/2000/svg"><path d="M78 155c43.078 0 78-34.698 78-77.5S121.078 0 78 0 0 34.698 0 77.5 34.922 155 78 155z" fill="#E59D29"/><path d="M96.536 47.631l17.557 14.662-53.514 68.796 23.825 23.649C124.487 151.501 156 118.159 156 77.5c0-5.289-.535-10.453-1.551-15.445l-38.82-38.57-9.205 7.952-9.888 16.194z" fill="#D48B07"/><path d="M67.684 43.838S62.168 21.92 40.37 23.485c0 0 16.282 13.047 13.656 29.487l13.657-9.134z" fill="#FFEDB5"/><path d="M88.317 43.838s5.515-21.919 27.313-20.353c0 0-16.283 13.047-13.657 29.487l-13.656-9.134z" fill="#FEE187"/><path d="M98.514 64.964c-3.762-5.897-1.999-13.707 3.937-17.444 4.103-2.584 14.682-2.09 20.821-1.54 2.381.214 3.912 2.615 3.09 4.846-2.119 5.75-6.187 15.466-10.291 18.05-5.936 3.737-13.796 1.986-17.557-3.912z" fill="#fff"/><path d="M109.285 72.923c-4.914 0-9.727-2.42-12.546-6.84v-.001c-4.374-6.86-2.317-15.978 4.587-20.325 4.414-2.78 14.474-2.543 22.134-1.855a5.707 5.707 0 014.333 2.627 5.63 5.63 0 01.542 5.015c-2.646 7.177-6.726 16.316-11.14 19.095a14.805 14.805 0 01-7.91 2.284zm-8.996-9.076c3.135 4.916 9.712 6.38 14.657 3.265 2.589-1.63 6.119-7.987 9.443-17.004a1.532 1.532 0 00-1.306-2.048c-9.626-.863-16.919-.407-19.507 1.223-4.948 3.115-6.422 9.648-3.287 14.564z" fill="#844E00"/><path d="M57.486 64.964c3.762-5.898 1.999-13.707-3.937-17.445-4.103-2.584-14.682-2.09-20.82-1.539-2.382.214-3.913 2.615-3.091 4.846 2.12 5.75 6.187 15.466 10.29 18.05 5.937 3.737 13.797 1.985 17.558-3.912z" fill="#fff"/><path d="M46.71 72.931a14.79 14.79 0 01-7.905-2.292c-4.414-2.78-8.494-11.918-11.14-19.095a5.63 5.63 0 01.542-5.015 5.702 5.702 0 014.333-2.627c7.66-.69 17.72-.925 22.134 1.855a14.639 14.639 0 016.53 9.218 14.556 14.556 0 01-1.943 11.107 14.727 14.727 0 01-9.278 6.488 15.064 15.064 0 01-3.272.361zm-5.035-25.3c-2.602 0-5.55.141-8.757.428-.48.044-.903.3-1.161.706a1.508 1.508 0 00-.146 1.343c3.324 9.017 6.854 15.374 9.443 17.004 2.397 1.51 5.241 2 8.01 1.383a10.55 10.55 0 006.648-4.648 10.424 10.424 0 001.392-7.959 10.486 10.486 0 00-4.68-6.605c-1.725-1.087-5.543-1.652-10.75-1.652z" fill="#A56602"/><path d="M126.972 76.742c0 4.832-5.806 9.44-7.546 14.879-1.562 4.881.762 11.813-1.965 16.504-2.683 4.615-9.845 6.055-13.44 9.869-3.771 4.001-4.989 11.257-9.523 13.687-4.796 2.57-11.132-.584-16.498-.584-5.367 0-11.702 3.154-16.498.583-4.534-2.429-5.751-9.686-9.522-13.686-3.595-3.813-10.757-5.254-13.44-9.868-2.727-4.691-.404-11.623-1.966-16.505-1.74-5.439-7.546-10.047-7.546-14.879 0-4.69 5.699-8.3 7.344-12.497 1.661-4.242-.103-10.688 2.948-14.169 2.966-3.385 9.691-2.616 13.698-5.042 3.837-2.323 6.143-8.648 10.693-9.877 4.312-1.165 9.544 3.064 14.29 3.064 4.745 0 9.977-4.23 14.29-3.064 4.55 1.23 6.856 7.554 10.693 9.877 4.007 2.426 10.731 1.657 13.698 5.043 3.051 3.482 1.285 9.927 2.947 14.169 1.645 4.196 7.343 7.806 7.343 12.496z" fill="#9B4308"/><path d="M126.972 76.742c0-4.69-5.698-8.3-7.343-12.497-1.662-4.242.103-10.688-2.947-14.169-2.967-3.386-9.692-2.617-13.699-5.042-3.837-2.324-6.142-8.648-10.692-9.878-4.313-1.165-9.545 3.065-14.29 3.065-.059 0-.117-.004-.176-.005V131.1l.175-.003c5.367 0 11.703 3.153 16.499.583 4.534-2.429 5.751-9.686 9.522-13.686 3.595-3.813 10.757-5.255 13.44-9.869 2.727-4.691.403-11.623 1.965-16.505 1.74-5.438 7.546-10.046 7.546-14.878z" fill="#823B0B"/><path d="M108.465 70.521c0-9.017-7.358-16.328-16.434-16.328A16.446 16.446 0 0078 62.018a16.445 16.445 0 00-14.031-7.825c-9.076 0-16.434 7.31-16.434 16.328 0 8.207 6.094 14.998 14.031 16.153v5.473c0 9.017 7.358 16.328 16.434 16.328s16.434-7.31 16.434-16.328v-5.473c7.937-1.156 14.031-7.946 14.031-16.153z" fill="#FFAD9E"/><path d="M92.031 54.193A16.446 16.446 0 0078 62.018c-.056-.09-.118-.176-.175-.265v46.717c.058.001.116.004.175.004 9.076 0 16.434-7.31 16.434-16.328v-5.472c7.936-1.156 14.031-7.947 14.031-16.154 0-9.016-7.358-16.327-16.434-16.327z" fill="#E58477"/><path d="M90.67 73.504c1.3 0 2.355-1.047 2.355-2.34a2.348 2.348 0 00-2.356-2.34 2.348 2.348 0 00-2.355 2.34 2.348 2.348 0 002.355 2.34zM65.326 73.504c1.3 0 2.355-1.047 2.355-2.34a2.348 2.348 0 00-2.355-2.34 2.348 2.348 0 00-2.355 2.34 2.348 2.348 0 002.355 2.34z" fill="#121149"/><path d="M82.07 89.633H73.93c-.725 0-1.313.584-1.313 1.305 0 .72.588 1.305 1.313 1.305h2.758v9.785c0 .661.496 1.201 1.138 1.287.058.008.116.018.175.018.726 0 1.314-.584 1.314-1.305v-9.785h2.757c.726 0 1.313-.584 1.313-1.305a1.31 1.31 0 00-1.313-1.305z" fill="#773426"/><path d="M82.07 89.633h-4.245v13.682c.058.008.115.018.175.018.725 0 1.313-.584 1.313-1.305v-9.785h2.758c.725 0 1.313-.584 1.313-1.305a1.31 1.31 0 00-1.313-1.305z" fill="#66271D"/></svg>