<svg width="155" height="155" fill="none" xmlns="http://www.w3.org/2000/svg"><path d="M77.5 155c42.802 0 77.5-34.698 77.5-77.5S120.302 0 77.5 0 0 34.698 0 77.5 34.698 155 77.5 155z" fill="#FFEDB5"/><path d="M117.016 48.356L49.78 115.035l39.127 39.127c34.669-5.114 61.862-33.184 65.639-68.272l-37.53-37.534z" fill="#FEE187"/><path d="M25.833 76.388c0-24.03 23.132-43.51 51.667-43.51s51.667 19.48 51.667 43.51c0 24.029-51.667 63.042-51.667 63.042s-51.667-39.013-51.667-63.043z" fill="#774639"/><path d="M77.5 32.879l-.174.001v106.418l.174.132s51.667-39.014 51.667-63.043c0-24.029-23.132-43.508-51.667-43.508z" fill="#680000"/><path d="M35.192 83.83c0-14.174 11.423-28.38 42.308-28.38 31.449 0 42.308 14.206 42.308 28.38 0 14.173-21.279 19.959-42.308 19.959-21.03 0-42.308-5.786-42.308-19.96z" fill="#FFC192"/><path d="M77.5 55.45c-.059 0-.115.003-.174.003v48.336l.174.001c21.03 0 42.308-5.787 42.308-19.96 0-14.174-10.859-28.38-42.308-28.38z" fill="#EFA878"/><path d="M105.305 87.712c-7.714-3.691-19.046-10.77-16.31-15.87 2.738-5.1 18.508-6.29 26.223-2.598 7.714 3.691 11.749 10.817 9.012 15.917s-11.21 6.242-18.925 2.55z" fill="#FDE085"/><path d="M49.694 87.712c7.715-3.691 19.047-10.77 16.31-15.87-2.737-5.1-18.507-6.29-26.222-2.598-7.714 3.691-11.749 10.817-9.012 15.917s11.21 6.242 18.924 2.55z" fill="#FFEDB5"/><path d="M55.236 80.826a2.34 2.34 0 100-4.68 2.34 2.34 0 000 4.68zM99.764 80.826a2.34 2.34 0 100-4.68 2.34 2.34 0 000 4.68z" fill="#121149"/><path d="M83.763 87.77H80.87l2.027-2.609c1.352-1.738-.162-4.02-2.665-4.02h-5.464c-2.504 0-4.017 2.283-2.666 4.02l2.027 2.608h-2.891a1.473 1.473 0 100 2.947h12.525a1.473 1.473 0 100-2.947z" fill="#773426"/><path d="M83.763 87.77H80.87l2.027-2.609c1.352-1.738-.162-4.02-2.665-4.02h-2.906v9.575h6.437a1.473 1.473 0 100-2.947z" fill="#680000"/></svg>