<svg width="155" height="155" fill="none" xmlns="http://www.w3.org/2000/svg"><path d="M77.5 155c42.802 0 77.5-34.698 77.5-77.5S120.302 0 77.5 0 0 34.698 0 77.5 34.698 155 77.5 155z" fill="#263A7A"/><path d="M125.134 58.19L43.508 99.978l52.734 52.735c30.621-7.606 54.051-33.417 58.127-65.283l-29.235-29.24z" fill="#121149"/><path d="M38.896 79.426c6.923 0 12.536-5.613 12.536-12.536 0-6.923-5.613-12.536-12.536-12.536-6.923 0-12.536 5.613-12.536 12.536 0 6.923 5.613 12.536 12.536 12.536z" fill="#D48B07"/><path d="M116.104 79.426c6.923 0 12.536-5.613 12.536-12.536 0-6.923-5.613-12.536-12.536-12.536-6.923 0-12.536 5.613-12.536 12.536 0 6.923 5.613 12.536 12.536 12.536z" fill="#B7760D"/><path d="M122.514 75.132c0 21.18-20.154 38.351-45.014 38.351-24.86 0-45.014-17.17-45.014-38.351 0-21.181 20.153-30.63 45.014-30.63 24.86 0 45.014 9.449 45.014 30.63z" fill="#FFC61B"/><path d="M77.5 44.502l-.174.002v68.975c.059 0 .116.003.174.003 24.861 0 45.014-17.17 45.014-38.35 0-21.182-20.153-30.63-45.014-30.63z" fill="#D89D09"/><path d="M59.865 79.833a3.142 3.142 0 100-6.284 3.142 3.142 0 000 6.284zM95.135 79.833a3.142 3.142 0 100-6.284 3.142 3.142 0 000 6.284z" fill="#121149"/><path d="M77.5 86.597c-10.96 0-19.844 7.728-19.844 17.259 0 2.2.478 4.3 1.34 6.235 5.646 2.173 11.906 3.392 18.504 3.392 6.598 0 12.858-1.22 18.503-3.392a15.249 15.249 0 001.34-6.234c0-9.532-8.884-17.26-19.843-17.26z" fill="#FEE187"/><path d="M77.674 86.597c-.059 0-.116.004-.174.004v26.877c.058 0 .115.004.174.004 6.598 0 12.857-1.219 18.503-3.392a15.249 15.249 0 001.34-6.234c0-9.531-8.884-17.258-19.843-17.258z" fill="#E0BD5A"/><path d="M80.903 85.483h-6.806c-3.118 0-5.004 2.843-3.32 5.008l3.403 4.378c.409.526.957.91 1.57 1.158v11.455a1.751 1.751 0 003.502 0V96.027a3.762 3.762 0 001.57-1.158l3.403-4.378c1.682-2.165-.203-5.008-3.322-5.008z" fill="#773426"/><path d="M80.903 85.483h-3.577v23.733c.058.005.115.018.174.018.967 0 1.751-.785 1.751-1.751V96.027a3.762 3.762 0 001.57-1.158l3.403-4.378c1.683-2.165-.202-5.008-3.32-5.008z" fill="#60261D"/><path d="M77.5 75.956l5.9-31.262a92.242 92.242 0 00-5.9-.191c-2.002 0-3.969.068-5.9.191l5.9 31.262z" fill="#D48B07"/><path d="M83.4 44.694a92.247 92.247 0 00-5.9-.191l-.174.002v30.53l.174.921 5.9-31.262zM121.584 82.916c.383-1.58.638-3.198.785-4.843l-13.306 1.636 12.521 3.207zM114.991 96.355c1.33-1.701 2.496-3.5 3.498-5.377l-16.546 2.034 13.048 3.343z" fill="#B7760D"/><path d="M33.415 82.916l12.521-3.208-13.306-1.635a33.23 33.23 0 00.785 4.843zM40.008 96.355l13.048-3.343-16.546-2.034a37.11 37.11 0 003.498 5.377z" fill="#D48B07"/></svg>