<svg width="155" height="155" fill="none" xmlns="http://www.w3.org/2000/svg"><g clip-path="url(#clip0)"><path d="M77.5 155c42.802 0 77.5-34.698 77.5-77.5S120.302 0 77.5 0 0 34.698 0 77.5 34.698 155 77.5 155z" fill="#FFEDB5"/><path d="M83.38 11.263c-2.389 2.882-4.954 6.171-5.88 9.873-3.653 20.876 1.566 41.751-13.57 59.495-4.174 4.175-4.696 9.916-5.74 15.657-.522 2.087-2.088 3.653-3.653 4.697-7.306 4.697-13.047 9.393-18.788 15.656-1.628 2.094.077 6.164.334 8.487l28.966 28.871A77.902 77.902 0 0077.5 155c41.052 0 74.644-31.921 77.322-72.294L83.38 11.263z" fill="#FEE187"/><path d="M40.306 101.942c-2.95 3.218-8.457 11.109-4.77 22.325.456 1.387 2.17 1.874 3.273.915l12.356-10.755a2.031 2.031 0 00.224-2.836l-8.02-9.586a2.035 2.035 0 00-3.063-.063zM114.694 101.942c2.95 3.218 8.457 11.109 4.77 22.325-.456 1.387-2.17 1.874-3.272.915l-12.357-10.755a2.032 2.032 0 01-.224-2.836l8.021-9.586a2.034 2.034 0 013.062-.063z" fill="#273B7A"/><path d="M118.555 85.328c0 21.522-18.381 38.968-41.055 38.968-22.675 0-41.055-17.446-41.055-38.968 0-21.52 18.38-47.143 41.055-47.143 22.674 0 41.055 25.622 41.055 47.143z" fill="#366695"/><path d="M77.5 38.185c-.146 0-.29.005-.435.008v86.092c.146.002.29.011.435.011 22.674 0 41.055-17.446 41.055-38.968 0-21.522-18.381-47.143-41.055-47.143z" fill="#273B7A"/><path d="M77.5 108.291c-17.33 0-32.503-7.744-40.872-19.33 1.932 19.817 19.489 35.335 40.872 35.335s38.94-15.518 40.872-35.335c-8.369 11.586-23.542 19.33-40.872 19.33z" fill="#38C6D9"/><path d="M77.5 108.291c-.146 0-.29-.005-.435-.006v16c.146.002.29.01.435.01 21.383 0 38.94-15.518 40.872-35.335-8.369 11.587-23.542 19.331-40.872 19.331z" fill="#366695"/><path d="M53.561 91.48a1.992 1.992 0 100-3.984 1.992 1.992 0 000 3.984zM101.439 91.48a1.992 1.992 0 100-3.985 1.992 1.992 0 000 3.985z" fill="#71E2EF"/><path d="M77.5 50.362c2.45 0 4.436-.818 4.436-1.827S79.95 46.71 77.5 46.71s-4.436.817-4.436 1.826c0 1.01 1.986 1.827 4.436 1.827z" fill="#121149"/><path d="M88.633 27.994c0-3.7-2.998-6.697-6.697-6.697a6.74 6.74 0 00-1.004.082v-3.597a3.798 3.798 0 00-.196-7.591 3.8 3.8 0 00-3.796 3.69h-.006v.79a4.21 4.21 0 00-3.653-2.116 4.215 4.215 0 00-.217 8.426v.717a6.659 6.659 0 00-2.262-.402 6.697 6.697 0 000 13.395c1.258 0 2.43-.354 3.436-.956V49.77c.81.362 1.97.591 3.261.591 1.292 0 2.451-.228 3.262-.591V38.745c.171.021.345.035.522.035a4.218 4.218 0 004.132-5.07 6.688 6.688 0 003.218-5.716z" fill="#71E2EF"/><path d="M88.633 27.994c0-3.7-2.998-6.697-6.697-6.697a6.74 6.74 0 00-1.004.082v-3.597a3.798 3.798 0 00-.196-7.591 3.796 3.796 0 00-3.671 2.839v37.322c.143.006.288.01.435.01 1.291 0 2.45-.229 3.261-.592V38.745c.171.021.345.035.522.035a4.218 4.218 0 004.133-5.071 6.687 6.687 0 003.217-5.715z" fill="#38C6D9"/></g><defs><clipPath id="clip0"><path fill="#fff" d="M0 0h155v155H0z"/></clipPath></defs></svg>