<svg width="155" height="156" fill="none" xmlns="http://www.w3.org/2000/svg"><g clip-path="url(#clip0)"><path d="M77.5 156c42.802 0 77.499-34.921 77.499-78 0-43.077-34.697-77.999-77.5-77.999C34.699.001 0 34.923 0 78.001S34.698 156 77.5 156z" fill="#FF7F4F"/><path d="M154.381 68.105L111.03 24.403c-.998 1.823-2.899 2.927-3.261 4.749-3.653 11.03-6.785 22.06-13.57 32.04-6.784 9.98-9.393 21.535-13.046 32.565-4.697 14.707.521 32.566-10.96 44.647-3.236 3.582-8.44 2.766-13.087 2.334l14.977 15.069c1.79.124 3.595.193 5.417.193 42.801 0 77.499-34.922 77.499-78 0-3.352-.21-6.654-.618-9.895z" fill="#FF5419"/><path d="M96.305 47.229l1.608-8.255a8.844 8.844 0 012.122-3.455L109.492 26l1.355 12.27a8.874 8.874 0 01-2.519 7.225l-7.07 7.116" fill="#D48B07"/><path d="M101.257 54.834a2.19 2.19 0 01-1.562-.651 2.234 2.234 0 010-3.145l7.07-7.116a6.601 6.601 0 001.884-5.407l-.846-7.67-6.207 6.246a6.645 6.645 0 00-1.544 2.46l-1.58 8.106c-.234 1.206-1.4 1.995-2.593 1.755a2.223 2.223 0 01-1.744-2.61l1.609-8.256a2.07 2.07 0 01.072-.275 11.11 11.11 0 012.655-4.324l9.458-9.52c.6-.603 1.491-.81 2.294-.525a2.223 2.223 0 011.465 1.853l1.355 12.269a11.053 11.053 0 01-3.152 9.044l-7.071 7.116c-.431.434-.997.65-1.563.65z" fill="#FFEDB5"/><path d="M58.695 47.229l-1.609-8.255a8.847 8.847 0 00-2.121-3.455L45.507 26l-1.354 12.27a8.874 8.874 0 002.519 7.225l7.07 7.116" fill="#D48B07"/><path d="M53.742 54.834a2.193 2.193 0 01-1.562-.651l-7.07-7.116a11.049 11.049 0 01-3.153-9.044l1.354-12.269c.094-.85.664-1.57 1.466-1.853a2.197 2.197 0 012.294.527l9.458 9.518a11.119 11.119 0 012.655 4.324c.03.09.054.182.072.275l1.608 8.255a2.224 2.224 0 01-1.743 2.611c-1.195.242-2.36-.549-2.594-1.754l-1.58-8.105a6.656 6.656 0 00-1.544-2.46l-6.207-6.246-.846 7.67a6.608 6.608 0 001.884 5.406l7.07 7.116a2.234 2.234 0 010 3.145 2.195 2.195 0 01-1.562.651z" fill="#FFEDB5"/><path d="M110.555 61.588C110.555 44.856 95.755 26 77.5 26c-18.256 0-33.056 18.856-33.056 35.588 0 11.38 8.812 13.526 16.974 20.133 4.785 3.874 9.107 18.596 9.91 36.495.148 3.324 2.866 5.946 6.172 5.946 3.307 0 6.024-2.622 6.173-5.946.802-17.9 5.124-32.62 9.91-36.495 8.161-6.607 16.972-8.753 16.972-20.133z" fill="#FEE187"/><path d="M77.5 26c-.146 0-.29.012-.435.014v98.127c.144.01.288.021.435.021 3.306 0 6.023-2.621 6.172-5.946.803-17.899 5.125-32.62 9.91-36.494 8.162-6.607 16.973-8.753 16.973-20.134C110.555 44.856 95.755 26 77.5 26z" fill="#FFC61B"/><path d="M57.203 65.881a2.14 2.14 0 002.134-2.147 2.14 2.14 0 00-2.134-2.147 2.14 2.14 0 00-2.133 2.147 2.14 2.14 0 002.133 2.147zM97.796 65.881a2.14 2.14 0 002.133-2.147 2.14 2.14 0 00-2.133-2.147 2.14 2.14 0 00-2.134 2.147 2.14 2.14 0 002.134 2.147z" fill="#121149"/><path d="M64.47 142.122c-1.927 0-4.014-.253-6.26-.76a2.224 2.224 0 01-1.672-2.658 2.21 2.21 0 012.641-1.683c5.668 1.282 9.905.671 12.592-1.817 4.773-4.42 3.64-13.735 3.627-13.828a2.22 2.22 0 011.886-2.508 2.211 2.211 0 012.492 1.897c.065.473 1.522 11.661-5.012 17.712-2.622 2.428-6.07 3.645-10.295 3.645z" fill="#FFEDB5"/><path d="M83.794 115.98a8.656 8.656 0 00-6.294-2.715 8.656 8.656 0 00-6.295 2.715c.046.74.088 1.484.122 2.236.15 3.324 2.866 5.946 6.173 5.946 3.306 0 6.023-2.622 6.172-5.946.034-.752.076-1.496.122-2.236z" fill="#434849"/><path d="M77.5 113.265c-.147 0-.29.016-.435.022v10.853c.144.01.288.021.435.021 3.306 0 6.023-2.62 6.172-5.945.034-.753.076-1.496.122-2.237a8.66 8.66 0 00-6.294-2.714z" fill="#3B3F3F"/></g><defs><clipPath id="clip0"><path fill="#fff" d="M0 0h155v156H0z"/></clipPath></defs></svg>