<svg width="155" height="155" fill="none" xmlns="http://www.w3.org/2000/svg"><path d="M77.5 155c42.802 0 77.5-34.698 77.5-77.5S120.302 0 77.5 0 0 34.698 0 77.5 34.698 155 77.5 155z" fill="#FFEDB5"/><path d="M129.581 53.032L44.12 107.851l46.103 46.103c36.426-6.017 64.28-37.431 64.765-75.448l-25.407-25.474z" fill="#FEE187"/><path d="M50.799 76.477c4.927-5.646 4.346-14.217-1.3-19.145-4.027-3.516-15.857-4.675-22.306-5.05-1.865-.11-3.14 1.85-2.284 3.512 2.591 5.031 6.747 14.299 6.747 21.98 0 7.494 14.215 4.348 19.143-1.297z" fill="#AA4118"/><path d="M104.201 76.477c-4.927-5.646-4.346-14.217 1.299-19.145 4.005-3.495 15.722-4.662 22.194-5.044 1.886-.112 3.154 1.89 2.264 3.556-2.598 4.863-6.614 13.71-6.614 21.93 0 7.494-14.215 4.348-19.143-1.297z" fill="#75210D"/><path d="M77.5 120.947c24.211 0 43.838-16.648 43.838-37.184 0-20.537-19.627-37.185-43.838-37.185-24.211 0-43.838 16.648-43.838 37.185 0 20.536 19.627 37.184 43.838 37.184z" fill="#D85830"/><path d="M77.5 46.579c-.32 0-.637.014-.957.02v74.327c.32.006.636.021.957.021 24.211 0 43.838-16.649 43.838-37.185S101.711 46.58 77.5 46.58z" fill="#CE4520"/><path d="M56.322 87.155a2.48 2.48 0 100-4.958 2.48 2.48 0 000 4.958zM98.678 87.155a2.48 2.48 0 100-4.958 2.48 2.48 0 000 4.958z" fill="#1E262B"/><path d="M61.277 90.157s2.002 6.783 7.394 9.001l-6.09 6.786s-5.87-8.742-1.304-15.787zM93.723 90.157s-2.001 6.783-7.394 9.001l6.09 6.786s5.87-8.742 1.304-15.787z" fill="#FFEDB5"/><path d="M77.5 115.337c9.607 0 17.394-5.374 17.394-12.004S87.107 91.33 77.5 91.33s-17.395 5.374-17.395 12.003c0 6.63 7.788 12.004 17.395 12.004z" fill="#FFC61B"/><path d="M77.5 91.331c-.32 0-.64.007-.957.019v23.969c.317.012.636.019.957.019 9.607 0 17.396-5.374 17.396-12.004S87.107 91.331 77.5 91.331z" fill="#DDA10B"/><path d="M69.41 105.943a2.61 2.61 0 100-5.22 2.61 2.61 0 000 5.22zM85.59 105.943a2.61 2.61 0 10-.002-5.22 2.61 2.61 0 00.001 5.22z" fill="#CC3636"/></svg>