<svg width="155" height="155" fill="none" xmlns="http://www.w3.org/2000/svg"><g clip-path="url(#clip0)"><path d="M77.5 155c42.802 0 77.5-34.698 77.5-77.5S120.302 0 77.5 0 0 34.698 0 77.5 34.698 155 77.5 155z" fill="#FFEDB5"/><path d="M35.375 22.64l56.23 56.23H48.978L27.212 61.856l8.163-39.216z" fill="#FEE187"/><path d="M151.549 54.565l-31.924-31.924c2.167 7.966 4.087 16.781 2.235 25.111-4.175 16.179-24.528 14.091-37.575 18.788-16.179 5.22-15.657 26.095-21.398 39.664-3.784 8.41-6.492 16.62-8.931 25.303L77.526 155C120.317 154.985 155 120.293 155 77.5a77.49 77.49 0 00-3.451-22.935z" fill="#FEE187"/><path d="M100.643 91.815s11.957 24.869.21 39.823c-.766.975-2.281.864-2.933-.191l-1.9-3.071c-.816-1.317-2.792-1.061-3.26.417-1.52 4.81-5.36 12.52-14.752 15.986a1.78 1.78 0 01-1.502-.14c-2.736-1.575-12.303-7.551-15.013-15.573-.486-1.439-2.436-1.648-3.235-.356l-1.513 2.445c-.71 1.148-2.386 1.144-3.08-.014-3.512-5.867-10.384-22.093 4.43-42.874l42.548 3.548z" fill="#8C5907"/><path d="M100.643 91.815L77.326 89.87v55.004a1.7 1.7 0 00.684-.096c9.392-3.466 13.23-11.176 14.752-15.986.467-1.477 2.443-1.734 3.258-.417l1.9 3.071c.653 1.055 2.167 1.166 2.934.191 11.747-14.953-.211-39.822-.211-39.822z" fill="#704405"/><path d="M44.815 86.698c8.003 29.202 21.695 35.642 32.97 35.642 11.68 0 27.062-4.687 32.971-35.642 5.007-26.231-14.762-32.365-32.97-32.365-18.21 0-40.029 6.61-32.97 32.365z" fill="#684000"/><path d="M77.786 54.332l-.46.003v68.001c.154.002.307.004.46.004 11.679 0 27.062-4.687 32.97-35.642 5.007-26.231-14.761-32.366-32.97-32.366z" fill="#543200"/><path d="M77.5 124.042c9.465 0 17.138-4.951 17.138-11.059s-7.673-11.059-17.138-11.059c-9.465 0-17.138 4.951-17.138 11.059s7.673 11.059 17.138 11.059z" fill="#D48B07"/><path d="M77.5 101.925l-.174.002v22.108l.174.003c9.465 0 17.138-4.95 17.138-11.057 0-6.106-7.673-11.056-17.138-11.056z" fill="#BF7908"/><path d="M67.882 115.901a2.918 2.918 0 100-5.836 2.918 2.918 0 000 5.836zM87.118 115.901a2.918 2.918 0 10.001-5.836 2.918 2.918 0 000 5.836z" fill="#543200"/><path d="M64.046 87.745a2.307 2.307 0 100-4.614 2.307 2.307 0 000 4.614zM90.954 87.745a2.307 2.307 0 100-4.614 2.307 2.307 0 000 4.614z" fill="#FFEDB5"/><path d="M77.973 54.332c-3.216 0-6.324.178-9.263.616l6.46 35.424c.47 2.578 4.166 2.578 4.636 0l6.484-35.556c-2.657-.342-5.444-.484-8.317-.484z" fill="#895203"/><path d="M77.973 54.332c-.218 0-.43.008-.647.01v37.951c1.094.07 2.233-.565 2.48-1.92l6.484-35.557c-2.657-.343-5.444-.484-8.317-.484z" fill="#704405"/><path d="M100.292 66.139h17.194c10.284 0 17.316-10.386 13.497-19.935L119.625 22.64v15.341c0 4.906-3.97 8.886-8.875 8.895-3.832.007-8.919-.007-15.291-.07-11.157-.11-16.01 4.703-17.96 7.74-1.949-3.037-6.801-7.85-17.958-7.74-6.373.063-11.46.077-15.291.07-4.906-.009-8.875-3.99-8.875-8.895V22.641L24.017 46.204c-3.819 9.548 3.213 19.935 13.497 19.935H100.292z" fill="#D48B07"/><path d="M130.983 46.204l-11.358-23.563v15.341c0 4.906-3.97 8.886-8.875 8.895-3.832.007-8.919-.007-15.29-.07-11.158-.11-16.01 4.703-17.96 7.74a14.621 14.621 0 00-.174-.262V66.14h40.16c10.284-.001 17.317-10.388 13.497-19.936z" fill="#995D07"/></g><defs><clipPath id="clip0"><path fill="#fff" d="M0 0h155v155H0z"/></clipPath></defs></svg>