<svg width="155" height="156" fill="none" xmlns="http://www.w3.org/2000/svg"><g clip-path="url(#clip0)"><path d="M77.5 156c42.802 0 77.5-34.922 77.5-78S120.302 0 77.5 0 0 34.922 0 78s34.698 78 77.5 78z" fill="#273B7A"/><path d="M154.844 82.89l-74.89-62-43.34 102.775 27.094 31.103A77.483 77.483 0 0077.5 156c41.169 0 74.835-32.31 77.344-73.11z" fill="#121149"/><path d="M43.055 117.911V66.392c0-19.146 15.422-34.667 34.445-34.667s34.444 15.521 34.444 34.667v51.519s-33.328 27.123-68.889 0z" fill="#FF6161"/><path d="M111.945 66.392c0-19.146-15.422-34.667-34.445-34.667-.058 0-.115.005-.174.005v98.228c20.098-.235 34.619-12.047 34.619-12.047V66.392z" fill="#E02222"/><path d="M90.656 50.984c-5.721 0-10.683 3.263-13.156 8.039-2.473-4.776-7.434-8.039-13.155-8.039-8.19 0-14.83 6.683-14.83 14.926 0 8.244 6.64 14.926 14.83 14.926 5.721 0 10.683-3.263 13.156-8.038 2.473 4.775 7.434 8.038 13.155 8.038 8.19 0 14.83-6.682 14.83-14.926 0-8.243-6.64-14.926-14.83-14.926z" fill="#FFAD9E"/><path d="M90.656 50.984c-5.721 0-10.682 3.263-13.155 8.039-.055-.106-.117-.206-.174-.31v14.395c.057-.104.12-.204.174-.309 2.473 4.776 7.434 8.039 13.155 8.039 8.19 0 14.831-6.683 14.831-14.926-.001-8.245-6.64-14.928-14.83-14.928z" fill="#FF6161"/><path d="M70.683 97.149c0-2.425 1.571-11.177 3.508-11.177S77.7 94.724 77.7 97.15c0 2.425-1.57 4.391-3.508 4.391-1.937 0-3.508-1.966-3.508-4.391z" fill="#FFEDB5"/><path d="M77.3 97.149c0-2.425 1.572-11.177 3.509-11.177 1.938 0 3.508 8.752 3.508 11.177 0 2.425-1.571 4.391-3.508 4.391-1.938 0-3.508-1.966-3.508-4.391z" fill="#FFEDB5"/><path d="M77.5 80.595l5.083 2.89L77.5 98.41l-5.082-14.926 5.082-2.889z" fill="#FFC91B"/><path d="M82.583 83.484L77.5 80.595l-.174.1V97.9l.174.51 5.083-14.926z" fill="#DD9F05"/><path d="M64.103 68.797a2.88 2.88 0 002.87-2.888 2.88 2.88 0 00-2.87-2.889 2.88 2.88 0 00-2.87 2.889 2.88 2.88 0 002.87 2.888zM90.417 68.797a2.88 2.88 0 002.87-2.888 2.88 2.88 0 00-2.87-2.889 2.88 2.88 0 00-2.87 2.889 2.88 2.88 0 002.87 2.888z" fill="#273B7A"/><path d="M72.915 23.108c0-2.148 1.73-3.89 3.865-3.89 2.136 0 3.866 1.741 3.866 3.89 0 2.15-1.73 10.257-3.866 10.257-2.135 0-3.865-8.108-3.865-10.257z" fill="#940030"/><path d="M69.41 26.849c-.722-2.023.324-4.25 2.334-4.976a3.86 3.86 0 014.944 2.35c.72 2.022 1.81 10.243-.2 10.968-2.01.725-6.359-6.32-7.079-8.342z" fill="#840030"/><path d="M111.945 108.596c-4.331 0-7.932 3.125-8.711 7.255a8.797 8.797 0 00-2.771-.45c-3.948 0-7.29 2.597-8.44 6.185a8.79 8.79 0 00-3.041-.549c-2.671 0-5.06 1.193-6.687 3.073a8.782 8.782 0 00-9.59 0c-1.626-1.879-4.015-3.073-6.686-3.073-1.07 0-2.09.2-3.04.549-1.151-3.588-4.493-6.185-8.441-6.185a8.79 8.79 0 00-2.771.45c-.78-4.13-4.38-7.255-8.71-7.255-4.9 0-8.873 3.998-8.873 8.929 0 4.932 3.972 8.929 8.872 8.929a8.79 8.79 0 002.77-.45c.78 4.131 4.381 7.256 8.712 7.256a8.79 8.79 0 003.04-.55c1.15 3.588 4.493 6.185 8.44 6.185 1.77 0 3.412-.526 4.796-1.423 1.626 1.879 4.015 3.073 6.686 3.073 2.671 0 5.06-1.193 6.687-3.073a8.78 8.78 0 004.795 1.423c3.948 0 7.29-2.597 8.44-6.185.95.349 1.971.55 3.041.55 4.331 0 7.932-3.125 8.711-7.256.872.289 1.802.45 2.771.45 4.9 0 8.871-3.997 8.871-8.929 0-4.931-3.971-8.929-8.871-8.929z" fill="#FFAD9E"/><path d="M111.945 108.596c-4.331 0-7.932 3.125-8.711 7.255a8.797 8.797 0 00-2.771-.45c-3.948 0-7.29 2.597-8.44 6.185a8.79 8.79 0 00-3.041-.549c-2.671 0-5.06 1.193-6.687 3.073a8.78 8.78 0 00-4.795-1.423c-.058 0-.115.005-.174.006v17.842c.059.001.115.01.174.01 2.671 0 5.06-1.194 6.687-3.074a8.781 8.781 0 004.795 1.424c3.948 0 7.29-2.597 8.44-6.185a8.79 8.79 0 003.041.549c4.331 0 7.932-3.125 8.711-7.255.872.289 1.802.45 2.771.45 4.9 0 8.871-3.998 8.871-8.929s-3.971-8.929-8.871-8.929z" fill="#FF6161"/></g><defs><clipPath id="clip0"><path fill="#fff" d="M0 0h155v156H0z"/></clipPath></defs></svg>