<svg width="156" height="155" fill="none" xmlns="http://www.w3.org/2000/svg"><path d="M78 155c43.078 0 78-34.698 78-77.5S121.078 0 78 0 0 34.698 0 77.5 34.922 155 78 155z" fill="#FFC61B"/><path d="M53.739 33.289l28.176 27.996H57.342L53.739 33.29zM106.8 33.865l-49.458 89.181 31.417 31.217c36.326-4.981 64.661-34.812 67.069-71.67L106.8 33.865z" fill="#D48B07"/><path d="M96.462 62.562c-4.26-.74-6.308-6.201-4.574-12.198 1.2-4.146 7.028-10.903 10.51-14.679 1.352-1.465 3.086-1.163 3.501.609 1.069 4.567 2.617 12.606 1.418 16.752-1.735 5.996-6.595 10.257-10.855 9.516z" fill="#824A25"/><path d="M97.446 64.631a7.71 7.71 0 01-1.328-.114c-2.114-.367-3.95-1.635-5.17-3.572-1.801-2.863-2.168-7.024-.98-11.13 1.251-4.325 6.649-10.801 10.957-15.471 1.191-1.292 2.763-1.838 4.208-1.461 1.346.35 2.36 1.458 2.712 2.96 1.332 5.689 2.655 13.386 1.392 17.752-1.87 6.464-6.873 11.036-11.791 11.036zm6.545-27.723a1.663 1.663 0 00-.12.119c-5.598 6.068-9.266 11.13-10.063 13.886-.88 3.04-.682 6.004.53 7.927.626.996 1.457 1.59 2.468 1.766 3.227.563 7.157-3.153 8.59-8.109.783-2.705.271-8.382-1.405-15.59z" fill="#663C0E"/><path d="M59.538 62.562c4.26-.74 6.308-6.201 4.574-12.198-1.2-4.146-7.028-10.903-10.51-14.679-1.352-1.465-3.086-1.163-3.501.609-1.07 4.567-2.617 12.606-1.418 16.752 1.734 5.996 6.594 10.257 10.855 9.516z" fill="#995C33"/><path d="M58.554 64.631c-4.918 0-9.921-4.571-11.792-11.036-1.262-4.366.06-12.063 1.393-17.751.352-1.503 1.366-2.61 2.712-2.961 1.446-.377 3.017.17 4.208 1.46 4.308 4.671 9.706 11.146 10.957 15.472 1.188 4.106.82 8.267-.982 11.13-1.218 1.936-3.054 3.205-5.168 3.572-.44.077-.884.114-1.328.114zm-6.546-27.723c-1.675 7.208-2.188 12.884-1.405 15.59 1.433 4.955 5.363 8.67 8.59 8.109 1.011-.176 1.841-.77 2.468-1.767 1.212-1.924 1.41-4.887.53-7.927-.798-2.756-4.465-7.817-10.063-13.886a1.274 1.274 0 00-.12-.12z" fill="#663C0E"/><path d="M46.222 81.535c0 28.669 14.228 49.396 31.778 49.396 17.55 0 31.778-20.726 31.778-49.396S95.55 44.539 78 44.539c-17.55 0-31.778 8.326-31.778 36.996z" fill="#AA714B"/><path d="M78 44.54l-.438.002v86.381c.146.002.292.007.438.007 17.55 0 31.778-20.726 31.778-49.396S95.55 44.54 78 44.54z" fill="#965E38"/><path d="M46.222 81.535c0 22.545 8.8 40.171 21.095 46.676 3.072-.506 5.233-3.245 5.26-9.929.075-18.699-10.23-54.56-14.383-68.247-7.294 5.33-11.972 15.07-11.972 31.5z" fill="#995C33"/><path d="M109.778 81.535c0 22.545-8.801 40.171-21.095 46.676-3.072-.506-5.233-3.245-5.26-9.929-.075-18.699 10.23-54.56 14.383-68.247 7.294 5.33 11.972 15.07 11.972 31.5z" fill="#824A25"/><path d="M63.051 81.075a2.628 2.628 0 002.637-2.62c0-1.447-1.18-2.62-2.637-2.62a2.628 2.628 0 00-2.636 2.62c0 1.447 1.18 2.62 2.636 2.62z" fill="#3A3A3A"/><path d="M92.954 81.075a2.628 2.628 0 002.637-2.62c0-1.447-1.18-2.62-2.637-2.62a2.628 2.628 0 00-2.637 2.62c0 1.447 1.18 2.62 2.637 2.62z" fill="#1E1D1D"/><path d="M77.427 130.284c13.083 0 23.689-6.8 23.689-15.187 0-8.388-10.606-15.187-23.689-15.187s-23.688 6.799-23.688 15.187c0 8.387 10.605 15.187 23.688 15.187z" fill="#663C0E"/><path d="M101.12 115.094c0-8.358-10.535-15.137-23.558-15.183v30.367c13.023-.046 23.558-6.825 23.558-15.184z" fill="#59330E"/><path d="M65.252 118.284c1.772 0 3.209-1.427 3.209-3.187a3.198 3.198 0 00-3.209-3.188c-1.772 0-3.208 1.427-3.208 3.188 0 1.76 1.436 3.187 3.208 3.187z" fill="#3A3A3A"/><path d="M89.603 118.284c1.772 0 3.208-1.427 3.208-3.187a3.198 3.198 0 00-3.208-3.188c-1.772 0-3.209 1.427-3.209 3.188 0 1.76 1.437 3.187 3.209 3.187z" fill="#1E1D1D"/><path d="M86.452 41.925c-4.415-2.63-20.667-4.804-23.63 4.831-4.942 16.063 14.754 25.55 14.754 25.55l-4.11-11.5s13.595 10.298 18.269 10.953l-6.038-9.42 13.623 3.289c-.001 0-.756-16.492-12.868-23.703z" fill="#3A3A3A"/><path d="M77.576 72.306l-.013-.04v.033a.12.12 0 00.013.007z" fill="#3A3A3A"/><path d="M91.734 71.758l-6.037-9.42 13.622 3.29s-.754-16.492-12.867-23.703c-1.694-1.009-5.13-1.947-8.889-2.181V63.78c4.394 3.095 11.148 7.554 14.171 7.977z" fill="#1E1D1D"/></svg>