<svg width="155" height="155" fill="none" xmlns="http://www.w3.org/2000/svg"><g clip-path="url(#clip0)"><path d="M77.5 155c42.802 0 77.5-34.698 77.5-77.5S120.302 0 77.5 0 0 34.698 0 77.5 34.698 155 77.5 155z" fill="#366695"/><path d="M154.84 72.582l-38.186-38.186c-13.066 15.867-23.244 33.67-33.413 51.976-7.927 13.522-6.31 34.112-19.16 42.922l24.883 24.86C126.329 148.614 155 116.406 155 77.5c0-1.652-.058-3.291-.16-4.918z" fill="#263A7A"/><path d="M77.5 135.516c3.77 0 6.826-1.392 6.826-3.108 0-1.717-3.056-3.109-6.826-3.109-3.77 0-6.826 1.392-6.826 3.109 0 1.716 3.056 3.108 6.826 3.108z" fill="#E5CB80"/><path d="M84.325 132.408c0-1.704-3.009-3.085-6.738-3.107v6.213c3.728-.021 6.737-1.403 6.737-3.106z" fill="#FFC61B"/><path d="M69.088 52.016S59.269 39.23 39.96 36.099c0 0-6.572 23.745 19.26 34.704" fill="#E59A23"/><path d="M59.22 73.013a2.19 2.19 0 01-.862-.176c-14.214-6.03-19.055-15.85-20.613-23.027-1.683-7.75.013-14.037.086-14.3a2.21 2.21 0 012.484-1.593C60.26 37.151 78.247 50.12 78.669 50.67c.744.967-7.267 2.355-8.235 3.099a2.21 2.21 0 01-3.096-.403c-.09-.117-8.857-11.22-25.64-14.699-.852 5.634-1.351 21.728 18.387 30.102a2.21 2.21 0 01-.865 4.244z" fill="#FFEDB5"/><path d="M86.163 52.016S95.98 39.23 115.29 36.099c0 0 5.528 26.093-20.304 37.052" fill="#CC8217"/><path d="M94.987 75.362a2.21 2.21 0 01-.864-4.246c10.028-4.254 16.269-11.354 18.55-21.104 1.104-4.718.98-8.913.749-11.318-16.775 3.518-25.416 14.552-25.506 14.667a2.21 2.21 0 01-3.099.407c-.968-.743-8.979-2.131-8.235-3.1.422-.55 18.41-13.517 38.354-16.752a2.21 2.21 0 012.516 1.724c.06.286 1.462 7.1-.475 15.378-1.802 7.7-6.93 18.144-21.127 24.167-.282.12-.575.177-.862.177z" fill="#FEE187"/><path d="M77.5 44.54c-16.622 0-30.095 32.967-30.095 54.944 0 21.978 30.095 33.075 30.095 33.075l.087-.033V44.542c-.03 0-.058-.003-.087-.003z" fill="#D48B07"/><path d="M107.595 99.485c0-21.94-13.427-54.828-30.008-54.943v87.984c1.772-.674 30.008-11.753 30.008-33.041z" fill="#B57104"/><path d="M63.896 82.317c0-12.438 7.535-37.778 13.604-37.778 5.742 0 13.604 25.34 13.604 37.778 0 19.037-8.312 46.849-13.604 46.849-5.01.001-13.604-27.811-13.604-46.849z" fill="#B77408"/><path d="M91.104 82.317c0-12.376-7.782-37.52-13.517-37.772v84.614c5.296-.299 13.517-27.908 13.517-46.842z" fill="#7C4E0B"/><path d="M93.85 117.173c-1.913-5.154-4.035-10.258-6.771-14.002a11.346 11.346 0 01-1.883-4.08c-1.766-7.428-3.623-16.581-7.777-16.581-4.04 0-5.852 9.111-7.583 16.398-.35 1.469-.987 2.849-1.877 4.069-2.73 3.741-4.838 8.89-6.742 14.06-1.939 5.266.222 11.181 5.124 13.913 3.975 2.214 7.794 1.4 11.14 1.4 3.378 0 7.12.925 10.968-1.112 5.066-2.681 7.395-8.691 5.4-14.065z" fill="#FFEDB5"/><path d="M93.85 117.173c-1.914-5.154-4.035-10.258-6.771-14.002a11.354 11.354 0 01-1.883-4.08c-1.741-7.326-3.574-16.323-7.608-16.57v49.83c3.35.019 7.053.901 10.861-1.114 5.066-2.68 7.395-8.691 5.4-14.064z" fill="#FEE187"/><path d="M99.738 93.984a2.52 2.52 0 11-3.566-3.566c.985-.985 4.673-1.107 4.673-1.107s-.122 3.688-1.107 4.673zM58.831 90.413c.988.993.993 2.6.012 3.593a2.508 2.508 0 01-3.566 0c-.987-.992-1.123-4.708-1.123-4.708s3.69.123 4.677 1.115z" fill="#1E262B"/><path d="M74.427 127.16l-3.26-4.194c-1.612-2.074.194-4.798 3.182-4.798h6.52c2.988 0 4.794 2.724 3.182 4.798l-3.26 4.194c-1.487 1.913-4.876 1.913-6.364 0z" fill="#252828"/><path d="M74.427 127.16l-3.26-4.194c-1.612-2.074.194-4.798 3.182-4.798h6.52c2.988 0 4.794 2.724 3.182 4.798l-3.26 4.194c-1.487 1.913-4.876 1.913-6.364 0z" fill="#252828"/></g><defs><clipPath id="clip0"><path fill="#fff" d="M0 0h155v155H0z"/></clipPath></defs></svg>