<svg width="156" height="155" fill="none" xmlns="http://www.w3.org/2000/svg"><path d="M78 155c43.078 0 78-34.698 78-77.5S121.078 0 78 0 0 34.698 0 77.5 34.922 155 78 155z" fill="#366695"/><path d="M124.67 47.958l-75.64 78.017 29.31 29.021c42.395-.181 76.803-33.965 77.64-75.932l-31.31-31.106z" fill="#273B7A"/><path d="M132.89 75.603c0 4.678-5.831 8.759-7.076 13.423-1.215 4.548 1.884 10.895-.352 15.133-2.222 4.211-9.242 5.302-12.316 8.921-3.114 3.667-3.075 10.75-6.901 13.514-3.909 2.824-10.565.527-15.046 2.097-4.477 1.567-8.323 7.5-13.198 7.5s-8.722-5.933-13.199-7.501c-4.481-1.569-11.137.727-15.046-2.096-3.826-2.765-3.787-9.848-6.9-13.515-3.074-3.619-10.094-4.71-12.317-8.921-2.236-4.239.863-10.585-.352-15.133-1.245-4.663-7.075-8.744-7.075-13.422 0-4.572 5.79-8.294 6.98-12.503 1.227-4.336-1.729-10.5.589-14.286 2.332-3.809 9.226-4.05 12.484-7.129 3.23-3.053 3.794-9.881 7.758-12.05 3.88-2.121 9.983 1.036 14.401-.08 4.254-1.075 8.072-6.785 12.677-6.785 4.604 0 8.423 5.71 12.676 6.785 4.418 1.116 10.522-2.04 14.401.08 3.965 2.17 4.529 8.998 7.759 12.05 3.258 3.08 10.152 3.321 12.484 7.13 2.317 3.785-.639 9.95.588 14.286 1.191 4.209 6.981 7.93 6.981 12.502z" fill="#FDE085"/><path d="M65.323 29.556c-4.418 1.116-10.521-2.04-14.4.08-3.965 2.168-4.53 8.998-7.759 12.05-3.258 3.08-10.152 3.32-12.484 7.13-2.318 3.784.639 9.95-.588 14.285-1.191 4.209-6.98 7.932-6.98 12.503 0 4.679 5.83 8.759 7.075 13.423 1.214 4.548-1.885 10.894.352 15.133 2.222 4.21 9.242 5.302 12.316 8.921 3.114 3.666 3.074 10.75 6.901 13.514 3.909 2.824 10.565.527 15.046 2.097 4.423 1.549 8.231 7.354 13.023 7.494V22.778c-4.526.141-8.302 5.717-12.502 6.778z" fill="#FDE085"/><path d="M125.813 89.026c1.245-4.664 7.076-8.745 7.076-13.423 0-4.572-5.79-8.294-6.981-12.503-1.226-4.335 1.73-10.5-.588-14.285-2.332-3.81-9.225-4.05-12.484-7.13-3.23-3.052-3.794-9.881-7.758-12.05-3.88-2.12-9.984 1.036-14.401-.08C86.423 28.48 82.605 22.77 78 22.77c-.058 0-.116.005-.175.007v113.408c.059.002.117.007.175.007 4.875 0 8.722-5.934 13.198-7.501 4.482-1.569 11.137.727 15.046-2.096 3.827-2.765 3.787-9.848 6.901-13.515 3.074-3.619 10.094-4.71 12.317-8.921 2.236-4.239-.863-10.585.351-15.133z" fill="#FFC61B"/><path d="M49.048 78.32c5.193 0 9.403-4.183 9.403-9.342 0-5.16-4.21-9.343-9.403-9.343-5.193 0-9.403 4.183-9.403 9.343s4.21 9.342 9.403 9.342z" fill="#E03A00"/><path d="M106.952 78.32c5.193 0 9.403-4.183 9.403-9.342 0-5.16-4.21-9.343-9.403-9.343-5.193 0-9.403 4.183-9.403 9.343s4.21 9.342 9.403 9.342z" fill="#FF0F27"/><path d="M111.757 76.115c0 15.782-15.114 28.576-33.757 28.576-18.643 0-33.757-12.794-33.757-28.576 0-15.781 15.114-22.822 33.757-22.822 18.643 0 33.757 7.04 33.757 22.822z" fill="#FF7F4F"/><path d="M78 53.293l-.175.002v51.393c.059 0 .116.003.175.003 18.643 0 33.757-12.794 33.757-28.575 0-15.782-15.114-22.823-33.757-22.823z" fill="#E8633A"/><path d="M64.774 79.616c1.3 0 2.355-1.048 2.355-2.34a2.348 2.348 0 00-2.355-2.34 2.348 2.348 0 00-2.355 2.34 2.348 2.348 0 002.355 2.34zM91.226 79.616c1.3 0 2.355-1.048 2.355-2.34a2.348 2.348 0 00-2.355-2.34 2.348 2.348 0 00-2.355 2.34 2.348 2.348 0 002.355 2.34z" fill="#121149"/><path d="M78 84.66c-8.219 0-14.88 5.757-14.88 12.86a11.3 11.3 0 001.004 4.644c4.234 1.619 8.928 2.528 13.876 2.528 4.948 0 9.642-.909 13.876-2.528a11.3 11.3 0 001.005-4.645c0-7.102-6.662-12.86-14.881-12.86z" fill="#FFA083"/><path d="M78 84.66c-.059 0-.117.002-.175.003v20.025c.059 0 .116.004.175.004 4.948 0 9.642-.909 13.876-2.528a11.298 11.298 0 001.005-4.645c0-7.102-6.662-12.86-14.881-12.86z" fill="#E5856E"/><path d="M74.104 84.66h7.791l4.562-30.84a65.584 65.584 0 00-8.458-.526c-2.92 0-5.754.173-8.457.525l4.562 30.84z" fill="#E05E36"/><path d="M86.457 53.819A65.584 65.584 0 0078 53.294c-.059 0-.116.003-.175.003v31.362h4.07l4.562-30.84z" fill="#C64528"/><path d="M80.552 83.828h-5.104c-2.339 0-3.753 2.118-2.49 3.732l2.552 3.262c.306.392.718.678 1.176.863v8.535c0 .721.588 1.305 1.314 1.305.725 0 1.313-.584 1.313-1.305v-8.535c.46-.185.87-.471 1.177-.863l2.552-3.262c1.263-1.614-.151-3.732-2.49-3.732z" fill="#773426"/><path d="M80.552 83.828h-2.727v17.68c.058.008.115.018.175.018.725 0 1.313-.584 1.313-1.305v-8.535c.46-.186.87-.472 1.177-.863l2.552-3.263c1.263-1.614-.151-3.732-2.49-3.732z" fill="#66261C"/></svg>