<svg width="156" height="155" fill="none" xmlns="http://www.w3.org/2000/svg"><path d="M78 155c43.078 0 78-34.698 78-77.5S121.078 0 78 0 0 34.698 0 77.5 34.922 155 78 155z" fill="#FFAD9E"/><path d="M122.229 53.615L39.336 94.7l58.217 57.844c30.705-7.875 54.077-33.865 57.894-65.813l-33.218-33.115z" fill="#FF6262"/><path d="M39.887 68.251c4.769 0 8.635-3.84 8.635-8.579 0-4.738-3.866-8.579-8.635-8.579-4.768 0-8.634 3.841-8.634 8.58 0 4.737 3.866 8.578 8.634 8.578z" fill="#633A2F"/><path d="M116.112 68.251c4.769 0 8.635-3.84 8.635-8.579 0-4.738-3.866-8.579-8.635-8.579-4.768 0-8.634 3.841-8.634 8.58 0 4.737 3.866 8.578 8.634 8.578z" fill="#47251F"/><path d="M121.827 80.582c0 19.535-19.622 24.119-43.827 24.119s-43.828-4.584-43.828-24.12c0-19.534 19.623-42.049 43.828-42.049 24.205 0 43.827 22.514 43.827 42.05z" fill="#915F4E"/><path d="M78 38.532l-.175.003V104.7l.175.001c24.205 0 43.827-4.584 43.827-24.12 0-19.535-19.622-42.049-43.827-42.049z" fill="#5B382F"/><path d="M61.276 66.705a2.798 2.798 0 002.807-2.79c0-1.54-1.256-2.789-2.807-2.789a2.798 2.798 0 00-2.807 2.79c0 1.54 1.256 2.789 2.807 2.789z" fill="#252828"/><path d="M94.724 66.705a2.798 2.798 0 002.807-2.79c0-1.54-1.257-2.789-2.807-2.789a2.798 2.798 0 00-2.807 2.79c0 1.54 1.257 2.789 2.807 2.789z" fill="#000"/><path d="M66.612 72.574c-6.592 0-11.936 4.791-11.936 10.702 0 5.91 5.343 10.701 11.936 10.701 5.343 0 9.866-3.148 11.388-7.488 1.522 4.34 6.045 7.488 11.388 7.488 6.593 0 11.936-4.791 11.936-10.701s-5.343-10.702-11.936-10.702H66.612z" fill="#FFEDB5"/><path d="M89.388 72.574H77.825v14.352c.059-.145.123-.288.175-.437 1.522 4.34 6.045 7.489 11.388 7.489 6.593 0 11.936-4.791 11.936-10.702 0-5.91-5.343-10.702-11.936-10.702z" fill="#FEE187"/><path d="M78 77.3c5.245 0 9.496-2.371 9.496-5.296 0-2.924-4.251-5.295-9.496-5.295s-9.496 2.371-9.496 5.295c0 2.925 4.251 5.296 9.496 5.296z" fill="#252828"/><path d="M78 66.708c-.059 0-.116.004-.175.005v10.58c.059 0 .116.005.175.005 5.245 0 9.496-2.37 9.496-5.295S83.245 66.708 78 66.708z" fill="#000"/></svg>