<svg width="155" height="156" fill="none" xmlns="http://www.w3.org/2000/svg"><path d="M77.5 156c42.802 0 77.5-34.922 77.5-78S120.302 0 77.5 0 0 34.922 0 78s34.698 78 77.5 78z" fill="#273B7A"/><path d="M154.689 71.043l-36.664-36.902c-11.923 9.65-28.283 15.66-34.262 30.203-2.61 5.777-3.653 12.08-5.74 17.858-4.175 10.505-3.132 22.061-10.438 30.99-2.568 3.23-4.99 7.206-7.982 10.712l30.815 31.011C127.07 148.725 155 116.648 155 78c0-2.345-.109-4.664-.311-6.957z" fill="#121149"/><path d="M118.025 34.142l-19.556 3.365c-6.09-3.205-13.272-4.941-20.969-4.941-7.622 0-14.742 1.7-20.793 4.846l-19-3.27L47 44.686c-5.798 6.143-9.295 14.397-9.295 24.254 0 22.264 17.816 64.211 39.794 64.211 21.978 0 39.794-41.947 39.794-64.211 0-9.642-3.346-17.752-8.92-23.85l9.651-10.949z" fill="#84A1A3"/><path d="M118.025 34.142l-19.556 3.365c-6.067-3.193-13.218-4.927-20.881-4.94v100.582c21.937-.111 39.706-41.974 39.706-64.209 0-9.642-3.345-17.751-8.92-23.85l9.651-10.949z" fill="#617777"/><path d="M90.656 50.984c-5.721 0-10.682 3.263-13.155 8.039-2.474-4.776-7.435-8.039-13.156-8.039-8.19 0-14.83 6.683-14.83 14.926 0 8.244 6.64 14.926 14.83 14.926 5.721 0 10.683-3.263 13.156-8.038 2.473 4.775 7.434 8.038 13.155 8.038 8.19 0 14.831-6.682 14.831-14.926-.001-8.243-6.64-14.926-14.83-14.926z" fill="#fff"/><path d="M90.656 50.984c-5.658 0-10.569 3.194-13.069 7.883v14.086c2.5 4.69 7.41 7.883 13.07 7.883 8.19 0 14.83-6.683 14.83-14.926-.001-8.243-6.64-14.926-14.83-14.926z" fill="#E8E8E8"/><path d="M77.587 71.631l-4.995 2.84 4.995 11.645 4.996-11.646-4.996-2.839z" fill="#263A7A"/><path d="M77.587 71.631v14.485l4.996-11.646-4.996-2.839z" fill="#121149"/><path d="M90.646 71.166c2.885 0 5.224-2.353 5.224-5.257 0-2.904-2.339-5.258-5.224-5.258-2.885 0-5.224 2.354-5.224 5.258 0 2.903 2.34 5.257 5.224 5.257z" fill="#71E2EF"/><path d="M90.646 68.797a2.88 2.88 0 002.87-2.888 2.88 2.88 0 00-2.87-2.889 2.88 2.88 0 00-2.87 2.889 2.88 2.88 0 002.87 2.888z" fill="#273B7A"/><path d="M64.354 71.166c2.885 0 5.224-2.353 5.224-5.257 0-2.904-2.34-5.258-5.224-5.258-2.885 0-5.224 2.354-5.224 5.258 0 2.903 2.339 5.257 5.224 5.257z" fill="#71E2EF"/><path d="M64.354 68.797a2.88 2.88 0 002.87-2.888 2.88 2.88 0 00-2.87-2.889 2.88 2.88 0 00-2.87 2.889 2.88 2.88 0 002.87 2.888z" fill="#273B7A"/><path d="M66.507 93.407c0 3.075-2.476 5.566-5.53 5.566-3.054 0-5.53-2.492-5.53-5.566h11.06zM77.569 93.407c0 3.075-2.476 5.566-5.53 5.566-3.054 0-5.53-2.492-5.53-5.566h11.06z" fill="#ACC5C6"/><path d="M88.493 93.407c0 3.075-2.477 5.566-5.53 5.566-3.055 0-5.531-2.492-5.531-5.566h11.06zM99.554 93.407c0 3.075-2.477 5.566-5.53 5.566-3.055 0-5.53-2.492-5.53-5.566h11.06z" fill="#8CA5A5"/><path d="M72.038 102.445c0 3.074-2.476 5.566-5.53 5.566-3.055 0-5.53-2.493-5.53-5.566h11.06zM83.1 102.445c0 3.074-2.477 5.566-5.531 5.566s-5.53-2.493-5.53-5.566h11.06z" fill="#ACC5C6"/><path d="M83.1 102.445h-5.513v5.565c3.046-.01 5.512-2.497 5.512-5.565z" fill="#8CA5A5"/><path d="M94.023 102.445c0 3.074-2.476 5.566-5.53 5.566-3.054 0-5.53-2.493-5.53-5.566h11.06z" fill="#8CA5A5"/><path d="M77.5 111.482c0 3.074-2.476 5.566-5.53 5.566-3.054 0-5.53-2.492-5.53-5.566H77.5z" fill="#ACC5C6"/><path d="M88.561 111.482c0 3.074-2.476 5.566-5.53 5.566-3.054 0-5.53-2.492-5.53-5.566h11.06z" fill="#8CA5A5"/></svg>