<svg width="155" height="156" fill="none" xmlns="http://www.w3.org/2000/svg"><g clip-path="url(#clip0)"><path d="M77.5 156c42.802 0 77.5-34.922 77.5-78S120.302 0 77.5 0 0 34.922 0 78s34.698 78 77.5 78z" fill="#273B7A"/><path d="M154.967 75.778L98.984 19.434c-8.19 1.078-17.411 3.082-21.484 10.768C69.15 45.434 67.062 61.717 61.322 78c-2.61 6.828-4.175 15.757-9.394 22.061-4.174 5.251-1.569 14.175-8.872 17.85l37.766 38.009C122.084 154.17 155 119.957 155 78c0-.743-.012-1.484-.033-2.222z" fill="#121149"/><path d="M43.056 117.911V66.392c0-19.146 15.42-34.667 34.444-34.667 19.023 0 34.445 15.521 34.445 34.667v51.519s-33.329 27.123-68.89 0z" fill="#D0E557"/><path d="M111.945 66.392c0-19.146-15.422-34.667-34.445-34.667v98.233c20.007-.3 34.445-12.047 34.445-12.047V66.392z" fill="#B8C443"/><path d="M60.758 74.575a2.88 2.88 0 002.87-2.889 2.88 2.88 0 00-2.87-2.888 2.88 2.88 0 00-2.87 2.888 2.88 2.88 0 002.87 2.89zM94.242 74.575a2.88 2.88 0 002.87-2.889 2.88 2.88 0 00-2.87-2.888 2.88 2.88 0 00-2.87 2.888 2.88 2.88 0 002.87 2.89z" fill="#222323"/><path d="M68.498 74.588c0-5.47 4.03-8.264 9.002-8.264s9.002 2.794 9.002 8.264c0 5.47-9.002 20.778-9.002 20.778s-9.002-15.308-9.002-20.778z" fill="#D35F09"/><path d="M77.5 66.324v29.042c.004-.006 9.002-15.31 9.002-20.779 0-5.47-4.03-8.263-9.002-8.263z" fill="#BA520C"/><path d="M76.456 34.877s.348-19.907 22.528-15.443c0 0-18.874 7.091-19.57 23.9l-2.958-8.457z" fill="#D48B07"/><path d="M70.368 34.877S67.758 20.4 85.154 14.97c0 0-5.045 11.555-5.74 28.363l-9.046-8.456z" fill="#D35F09"/><path d="M77.826 123.303l-34.77-34.995v29.603c35.56 27.124 68.889 0 68.889 0V88.965l-34.119 34.338z" fill="#7CBC44"/><path d="M111.945 88.965l-34.119 34.338-.326-.328v6.982c20.007-.3 34.445-12.047 34.445-12.047V88.965z" fill="#6BA334"/></g><defs><clipPath id="clip0"><path fill="#fff" d="M0 0h155v156H0z"/></clipPath></defs></svg>