<svg width="156" height="156" fill="none" xmlns="http://www.w3.org/2000/svg"><path d="M78 156c43.078 0 78-34.922 78-78S121.078 0 78 0 0 34.922 0 78s34.922 78 78 78z" fill="#FF7F4F"/><path d="M107.176 38.4L36.505 129.57l24.585 24.585A78.248 78.248 0 0078 156c40.125 0 73.167-30.299 77.51-69.264l-48.334-48.337z" fill="#FF5419"/><path d="M36.505 129.571V67.905C36.505 44.988 55.083 26.41 78 26.41c22.917 0 41.495 18.578 41.495 41.495v61.666s-40.15 32.466-82.99 0z" fill="#366695"/><path d="M119.495 67.905c0-22.917-18.578-41.495-41.495-41.495-.059 0-.116.004-.175.004v117.578c24.193-.294 41.67-14.421 41.67-14.421V67.905z" fill="#273B7A"/><path d="M49.834 137.739c22.724 10.82 43.497 5.522 56.333-.333V65.91H49.833v71.829z" fill="#fff"/><path d="M106.166 65.91H77.825v78.078c11.266-.135 21.076-3.268 28.341-6.582V65.91z" fill="#D8D8D8"/><path d="M91.241 50.984c-5.758 0-10.751 3.263-13.24 8.039-2.49-4.776-7.483-8.039-13.241-8.039-8.243 0-14.926 6.683-14.926 14.926 0 8.244 6.683 14.926 14.926 14.926 5.758 0 10.751-3.263 13.24-8.038 2.49 4.775 7.483 8.038 13.241 8.038 8.243 0 14.926-6.682 14.926-14.926-.001-8.243-6.683-14.926-14.926-14.926z" fill="#FEE187"/><path d="M91.241 50.984c-5.758 0-10.751 3.263-13.24 8.039-.055-.106-.118-.206-.175-.31v14.395c.057-.104.12-.204.175-.309 2.489 4.776 7.482 8.038 13.24 8.038 8.243 0 14.926-6.682 14.926-14.925 0-8.245-6.683-14.928-14.926-14.928z" fill="#FFC91B"/><path d="M78 73.468l5.115 2.888L78 88.206l-5.115-11.85L78 73.468z" fill="#D48B07"/><path d="M83.115 76.356L78 73.468l-.175.099V87.8l.175.405 5.115-11.849z" fill="#AF6E08"/><path d="M64.517 68.797a2.889 2.889 0 100-5.777 2.889 2.889 0 000 5.777zM91 68.797a2.889 2.889 0 100-5.777 2.889 2.889 0 000 5.777z" fill="#273B7A"/></svg>