<svg width="155" height="156" fill="none" xmlns="http://www.w3.org/2000/svg"><path d="M77.5 156c42.802 0 77.5-34.922 77.5-78S120.302 0 77.5 0 0 34.922 0 78s34.698 78 77.5 78z" fill="#386895"/><path d="M13.512 74.642l32.42 32.63V73.01l-32.42 1.632zM130.128 61.552l-85.167 47.831 45.25 45.566c34.139-5.67 60.753-33.789 64.368-68.79l-24.451-24.607z" fill="#273B7A"/><path d="M99.88 65.252c1.886-8.468 10.236-13.794 18.65-11.895 8.415 1.899 22.959 21.285 22.959 21.285s-21.377 11.28-29.791 9.381c-8.414-1.899-13.706-10.303-11.819-18.77z" fill="#D34040"/><path d="M55.12 65.252c-1.886-8.468-10.236-13.794-18.65-11.895-8.415 1.899-22.958 21.285-22.958 21.285s21.377 11.28 29.79 9.381c8.414-1.898 13.706-10.303 11.819-18.77z" fill="#FF6262"/><path d="M77.5 121.727c24.211 0 43.838-16.755 43.838-37.424S101.711 46.88 77.5 46.88c-24.211 0-43.838 16.755-43.838 37.424s19.627 37.424 43.838 37.424z" fill="#FFAD9E"/><path d="M77.5 46.88c-.058 0-.115.003-.174.003v74.841c.059 0 .116.004.174.004 24.211 0 43.838-16.756 43.838-37.425 0-20.668-19.627-37.424-43.838-37.424z" fill="#D66E61"/><path d="M56.322 91.92c1.37 0 2.48-1.118 2.48-2.496a2.487 2.487 0 00-2.48-2.495 2.487 2.487 0 00-2.48 2.495 2.487 2.487 0 002.48 2.495zM98.678 91.92a2.487 2.487 0 002.479-2.496 2.487 2.487 0 00-2.479-2.495 2.487 2.487 0 00-2.479 2.495 2.487 2.487 0 002.48 2.495z" fill="#1E262B"/><path d="M77.5 114.636c9.607 0 17.394-4.762 17.394-10.636S87.107 93.364 77.5 93.364 60.105 98.126 60.105 104s7.788 10.636 17.395 10.636z" fill="#FF6262"/><path d="M77.5 93.365l-.174.003v21.267l.174.003c9.607 0 17.396-4.762 17.396-10.637 0-5.874-7.789-10.636-17.396-10.636z" fill="#D34040"/><path d="M69.41 106.626A2.618 2.618 0 0072.02 104a2.617 2.617 0 00-2.61-2.626A2.617 2.617 0 0066.802 104a2.618 2.618 0 002.61 2.626z" fill="#CC3636"/><path d="M85.59 106.626A2.618 2.618 0 0088.198 104a2.617 2.617 0 00-2.61-2.626A2.617 2.617 0 0082.98 104a2.618 2.618 0 002.61 2.626z" fill="#BC2F2F"/></svg>