<svg width="156" height="156" fill="none" xmlns="http://www.w3.org/2000/svg"><path d="M78 156c43.078 0 78-34.922 78-78S121.078 0 78 0 0 34.922 0 78s34.922 78 78 78z" fill="#263A7A"/><path d="M124.076 55.654l-79.609 47.573 50.842 50.842c31.882-7.224 56.346-33.974 60.166-67.017l-31.399-31.398z" fill="#121149"/><path d="M42.871 82.605c8.679 0 15.714-7.036 15.714-15.714 0-8.679-7.035-15.714-15.714-15.714-8.678 0-15.714 7.035-15.714 15.714 0 8.678 7.036 15.714 15.714 15.714z" fill="#AAF0F2"/><path d="M113.124 82.605c8.678 0 15.714-7.036 15.714-15.714 0-8.679-7.036-15.714-15.714-15.714-8.679 0-15.714 7.035-15.714 15.714 0 8.678 7.035 15.714 15.714 15.714z" fill="#38C6D9"/><path d="M122.121 79.05c0 20.67-19.754 37.425-44.12 37.425-24.368 0-44.122-16.756-44.122-37.424 0-20.669 19.754-31.779 44.121-31.779s44.121 11.11 44.121 31.779z" fill="#fff"/><path d="M78 47.272c-.147 0-.29.006-.438.007v69.187c.147.001.29.009.438.009 24.367 0 44.121-16.756 44.121-37.424 0-20.669-19.754-31.779-44.121-31.779z" fill="#EDECEB"/><path d="M60.625 86.667a2.495 2.495 0 100-4.99 2.495 2.495 0 000 4.99zM95.376 86.667a2.495 2.495 0 100-4.99 2.495 2.495 0 000 4.99z" fill="#1E262B"/><path d="M75.035 100.767l-3.038-3.908c-1.503-1.933.18-4.471 2.964-4.471h6.077c2.784 0 4.467 2.538 2.964 4.47l-3.038 3.909c-1.385 1.783-4.543 1.783-5.929 0z" fill="#366695"/><path d="M81.038 92.388h-3.475v9.694c1.273.129 2.62-.308 3.402-1.314l3.038-3.909c1.502-1.932-.18-4.47-2.965-4.47z" fill="#273B7A"/></svg>