<svg width="155" height="156" fill="none" xmlns="http://www.w3.org/2000/svg"><g clip-path="url(#clip0)"><path d="M77.5 156c42.802 0 77.5-34.922 77.5-78S120.302 0 77.5 0 0 34.922 0 78s34.698 78 77.5 78z" fill="#386895"/><path d="M51.906 18.005l45.82 46.116-15.703 7.576H58.8l-6.893-53.692z" fill="#273B7A"/><path d="M152.93 60.033l-42.16-42.43c-8.348 26.327-14.376 54.345-36.923 73.003-8.872 6.829-18.266 12.606-23.485 22.061-1.498 2.713-3.523 4.874-5.46 7.145l35.86 36.115C122.052 154.205 155 119.978 155 78c0-6.184-.719-12.198-2.07-17.967z" fill="#273B7A"/><path d="M94.51 80.343c-7.29-1.645-10.795-13.777-7.827-27.098 2.052-9.21 12.025-24.222 17.985-32.61 2.313-3.254 5.28-2.584 5.991 1.352 1.83 10.145 4.479 28.005 2.427 37.215-2.968 13.32-11.285 22.786-18.576 21.14z" fill="#E8887C"/><path d="M96.19 82.67a9.736 9.736 0 01-2.145-.238c-4.317-.974-7.633-4.76-9.338-10.662-1.576-5.46-1.612-12.204-.099-18.993 2.035-9.136 11.09-23.198 18.33-33.387 1.624-2.285 3.738-3.33 5.792-2.864 2.057.465 3.523 2.316 4.021 5.079 2.224 12.323 4.446 28.93 2.41 38.065-3.002 13.474-11.049 23-18.97 23zm-1.215-4.416c6.033 1.353 13.375-7.58 16.035-19.52 1.979-8.881-.682-26.596-2.444-36.365-.232-1.285-.687-1.648-.767-1.666-.073-.021-.644.112-1.401 1.178-5.739 8.076-15.661 22.952-17.64 31.832-1.358 6.096-1.346 12.084.034 16.862 1.252 4.334 3.448 7.062 6.183 7.679z" fill="#E8E8E8"/><path d="M61.539 80.343c7.29-1.645 10.795-13.777 7.827-27.098-2.052-9.21-12.026-24.222-17.985-32.61-2.313-3.254-5.28-2.584-5.99 1.352-1.831 10.145-4.48 28.005-2.428 37.215 2.968 13.32 11.285 22.786 18.576 21.14z" fill="#FFAD9E"/><path d="M59.858 82.67c-7.92 0-15.968-9.524-18.97-23-2.036-9.136.186-25.742 2.41-38.066.497-2.763 1.964-4.614 4.02-5.078 2.056-.465 4.169.58 5.793 2.864 7.239 10.188 16.295 24.25 18.33 33.386 1.512 6.79 1.477 13.535-.1 18.993-1.704 5.902-5.02 9.688-9.337 10.662-.712.16-1.428.24-2.146.24zM48.267 20.703a.08.08 0 00-.017.001c-.08.018-.535.38-.767 1.666-1.763 9.77-4.424 27.484-2.445 36.364C47.7 70.675 55.047 79.61 61.073 78.253c2.735-.617 4.931-3.344 6.184-7.679 1.38-4.777 1.391-10.765.033-16.861-1.979-8.88-11.901-23.756-17.64-31.833-.714-1.006-1.26-1.178-1.383-1.178z" fill="#fff"/><path d="M121.338 94.788c0 20.669-19.627 37.425-43.838 37.425-24.211 0-43.838-16.756-43.838-37.424 0-20.669 19.627-30.466 43.838-30.466 24.211 0 43.838 9.797 43.838 30.466z" fill="#fff"/><path d="M121.338 94.789c0-20.645-19.58-30.44-43.75-30.465v67.887c24.17-.04 43.75-16.778 43.75-37.422z" fill="#E8E8E8"/><path d="M56.322 109.169c1.369 0 2.479-1.117 2.479-2.495a2.488 2.488 0 00-2.48-2.496 2.488 2.488 0 00-2.478 2.496 2.487 2.487 0 002.479 2.495zM98.678 109.169c1.369 0 2.479-1.117 2.479-2.495a2.488 2.488 0 00-2.48-2.496 2.488 2.488 0 00-2.478 2.496 2.487 2.487 0 002.479 2.495z" fill="#1E262B"/><path d="M81.544 110.815h-8.089a2.095 2.095 0 00-2.087 2.101c0 1.161.934 2.101 2.087 2.101h1.957v9.061c0 1.16.935 2.101 2.088 2.101a2.095 2.095 0 002.088-2.101v-9.061h1.957c1.153 0 2.088-.94 2.088-2.101 0-1.16-.936-2.101-2.089-2.101z" fill="#FF6262"/><path d="M81.544 110.815h-3.957v15.355a2.09 2.09 0 002-2.092v-9.061h1.958c1.153 0 2.087-.94 2.087-2.101 0-1.16-.935-2.101-2.088-2.101z" fill="#F24C4C"/></g><defs><clipPath id="clip0"><path fill="#fff" d="M0 0h155v156H0z"/></clipPath></defs></svg>