<svg width="156" height="155" fill="none" xmlns="http://www.w3.org/2000/svg"><path d="M78 155c43.078 0 78-34.698 78-77.5S121.078 0 78 0 0 34.698 0 77.5 34.922 155 78 155z" fill="#71E2EF"/><path d="M102.424 41.526l-59.09 75.629 38.012 37.769c36.177-1.518 65.98-27.513 73.057-61.751l-51.979-51.647z" fill="#38C6D9"/><path d="M43.333 117.155V65.966c0-19.023 15.521-34.444 34.667-34.444s34.667 15.421 34.667 34.444v51.189s-33.544 26.95-69.334 0z" fill="#fff"/><path d="M112.667 65.966c0-19.023-15.521-34.444-34.667-34.444-.059 0-.116.004-.175.004v97.599c20.227-.233 34.842-11.97 34.842-11.97V65.966z" fill="#E2E1E0"/><path d="M78 65.724l9.454 5.305L78 98.438l-9.454-27.41L78 65.725z" fill="#D48B07"/><path d="M87.454 71.029L78 65.724l-.175.098V97.93l.175.507 9.454-27.41z" fill="#BF7908"/><path d="M64.517 68.356a2.88 2.88 0 002.888-2.87 2.88 2.88 0 00-2.888-2.87 2.88 2.88 0 00-2.89 2.87 2.88 2.88 0 002.89 2.87zM91 68.356a2.88 2.88 0 002.889-2.87A2.88 2.88 0 0091 62.616a2.88 2.88 0 00-2.889 2.87 2.88 2.88 0 002.89 2.87z" fill="#273B7A"/></svg>