<svg width="155" height="155" fill="none" xmlns="http://www.w3.org/2000/svg"><path d="M77.5 155c42.802 0 77.5-34.698 77.5-77.5S120.302 0 77.5 0 0 34.698 0 77.5 34.698 155 77.5 155z" fill="#FFEDB5"/><path d="M103.862 44.183L47.364 110.9l43.027 43.027c31.383-5.255 56.372-29.367 62.922-60.292l-49.451-49.452z" fill="#FEE187"/><path d="M119.251 81.057c0 24.97-18.693 42.187-41.751 42.187-23.058 0-41.75-17.217-41.75-42.187S54.441 32.82 77.5 32.82s41.751 23.268 41.751 48.238z" fill="#915F4E"/><path d="M77.5 32.819l-.174.002v90.419c.058 0 .116.004.174.004 23.058 0 41.751-17.217 41.751-42.187S100.558 32.82 77.5 32.82z" fill="#5B382F"/><path d="M58.183 90.095c.16 3.523 1.293 16.313 9.277 28.291.605.908 2.025.393 1.903-.691-.82-7.345-2.398-22.89-1.765-28.55a1.036 1.036 0 00-1.177-1.138l-7.341 1.015a1.035 1.035 0 00-.897 1.073zM96.817 90.095c-.16 3.523-1.293 16.313-9.276 28.291-.606.908-2.025.393-1.904-.691.82-7.345 2.398-22.89 1.765-28.55a1.036 1.036 0 011.177-1.138l7.342 1.015c.532.074.921.536.896 1.073z" fill="#FFEDB5"/><path d="M65.465 64.262a2.675 2.675 0 100-5.349 2.675 2.675 0 000 5.35z" fill="#252828"/><path d="M89.535 64.262a2.675 2.675 0 100-5.349 2.675 2.675 0 000 5.35z" fill="#000"/><path d="M64.856 70.925c-7.32 0-13.253 5.354-13.253 11.959 0 6.605 5.934 11.959 13.253 11.959 5.933 0 10.955-3.518 12.645-8.368 1.69 4.85 6.71 8.368 12.644 8.368 7.32 0 13.253-5.354 13.253-11.96 0-6.604-5.934-11.958-13.253-11.958H64.856z" fill="#FFC61B"/><path d="M90.144 70.925H77.326v15.987c.058-.145.122-.288.174-.437 1.69 4.85 6.711 8.368 12.644 8.368 7.32 0 13.254-5.354 13.254-11.959-.001-6.605-5.934-11.96-13.254-11.96z" fill="#D48B07"/><path d="M74.134 76.514l-3.45-4.438c-1.706-2.195.205-5.077 3.366-5.077h6.9c3.162 0 5.073 2.882 3.367 5.077l-3.45 4.438c-1.574 2.023-5.16 2.023-6.733 0z" fill="#252828"/><path d="M80.95 66.999h-3.623v11.024c1.347.048 2.718-.452 3.54-1.51l3.45-4.437c1.706-2.195-.205-5.077-3.367-5.077z" fill="#000"/></svg>